<!-- Generator: Adobe Illustrator 19.0.0, SVG Export Plug-In  -->
<svg version="1.1"
	 xmlns="http://www.w3.org/2000/svg" xmlns:xlink="http://www.w3.org/1999/xlink" xmlns:a="http://ns.adobe.com/AdobeSVGViewerExtensions/3.0/"
	 x="0px" y="0px" width="59px" height="59px" viewBox="0 0 59 59" style="enable-background:new 0 0 59 59;" xml:space="preserve">
<defs>
</defs>
<g>
	<path d="M6.7,59h45.6c2.9,0,6.7-0.6,6.7-6V6c0-5.3-3.8-6-6.7-6H6.7C3.8,0,0,0.6,0,6v47C0,58.4,3.8,59,6.7,59z M2.8,53.1V31h25.3
		v25.3H6.7C3.4,56.2,2.8,55.2,2.8,53.1z M52.3,56.2H30.9V30.9h25.3V53C56.1,55.2,55.6,56.2,52.3,56.2z M56.1,6.1v22.1H30.8V2.9h21.4
		C55.6,2.9,56.1,3.9,56.1,6.1z M6.7,2.9h21.4v25.3H2.8V6.1C2.8,3.9,3.4,2.9,6.7,2.9z"/>
	<path d="M9.8,16.9H14v4.2c0,0.8,0.6,1.4,1.4,1.4s1.4-0.6,1.4-1.4v-4.2H21c0.8,0,1.4-0.6,1.4-1.4s-0.6-1.4-1.4-1.4h-4.2V9.9
		c0-0.8-0.6-1.4-1.4-1.4S14,9.1,14,9.9v4.2H9.8c-0.8,0-1.4,0.6-1.4,1.4S9.1,16.9,9.8,16.9z"/>
	<path d="M37.9,16.9h11.2c0.8,0,1.4-0.6,1.4-1.4s-0.6-1.4-1.4-1.4H37.9c-0.8,0-1.4,0.6-1.4,1.4S37.1,16.9,37.9,16.9z"/>
	<path d="M49.1,39.4H37.9c-0.8,0-1.4,0.6-1.4,1.4s0.6,1.4,1.4,1.4h11.2c0.8,0,1.4-0.6,1.4-1.4S49.9,39.4,49.1,39.4z"/>
	<path d="M49.1,45H37.9c-0.8,0-1.4,0.6-1.4,1.4s0.6,1.4,1.4,1.4h11.2c0.8,0,1.4-0.6,1.4-1.4S49.9,45,49.1,45z"/>
	<path d="M17.4,43.6l4.4-4.4c0.5-0.5,0.5-1.4,0-2c-0.5-0.5-1.4-0.5-2,0l-4.4,4.4L11,37.2c-0.5-0.5-1.4-0.5-2,0c-0.5,0.5-0.5,1.4,0,2
		l4.4,4.4L9,48c-0.5,0.5-0.5,1.4,0,2c0.3,0.3,0.6,0.4,1,0.4s0.7-0.1,1-0.4l4.4-4.4l4.4,4.4c0.3,0.3,0.6,0.4,1,0.4s0.7-0.1,1-0.4
		c0.5-0.5,0.5-1.4,0-2L17.4,43.6z"/>
</g>
</svg>