<!-- Generator: Adobe Illustrator 19.0.0, SVG Export Plug-In  -->
<svg version="1.1"
	 xmlns="http://www.w3.org/2000/svg" xmlns:xlink="http://www.w3.org/1999/xlink" xmlns:a="http://ns.adobe.com/AdobeSVGViewerExtensions/3.0/"
	 x="0px" y="0px" width="87.823px" height="54.775px" viewBox="0 0 87.823 54.775"
	 style="enable-background:new 0 0 87.823 54.775;" xml:space="preserve">
<defs>
</defs>
<path d="M87.488,21.875l-5.7-15.5c-0.5-1.5-1.7-2.7-3.2-3.4c-1.4-0.7-3.2-0.7-4.7-0.1l-9.7,3.9c-0.7,0.2-1.4,0.2-2-0.1l-12-5.5
	l-0.1-0.1c-0.9-0.4-2.9-1.1-5.5-1c-0.3-0.1-0.5-0.1-0.8,0c0,0-0.2,0-0.4,0.1c-9.2,1.5-14.8,3.2-17.9,4.3c-0.6,0.2-1.4,0.2-2-0.2
	l-5.9-3c-2.8-1.4-6.2-0.5-7.9,2.2l-8.8,14.1c-1.7,2.9-0.9,6.5,1.9,8.3l13.5,8.6c-0.6,1.3-1,2.7-1,4c0.1,3.2,2.6,4.8,5.1,5.1
	c0.8,3.1,2.8,5,5.2,5c0.3,0,0.8,0,1.3-0.2c1.3,3.1,3.1,3.8,4.5,3.8c0.9,0,1.6-0.3,2.3-0.6c1,1.5,2.8,2.6,5.6,2.8l0,0
	c1.1,0,2.1-0.5,2.7-1.4c0.3-0.4,0.6-1,0.8-1.6l3.9,2.4c0.4,0.3,1.5,1,2.9,1c1,0,2-0.3,3.5-1.1l0.3-0.3c0.4-0.4,1.1-1,1.4-1.9
	c1.7,0.4,3.5,0,4.8-1.2c1.1-1.2,1.7-2.2,1.8-3.3c1.4,0,2.9-0.6,3.8-1.6c0.7-0.7,1.4-1.9,1.7-3.2c1.6-0.1,3.4-0.9,4.6-2.3
	s1.5-3.1,1.1-4.8l11.8-5.5C87.188,28.175,88.488,24.875,87.488,21.875z M68.988,37.275c-0.5,0.6-1.5,1-2.2,1c-0.6,0-0.8-0.1-0.9-0.2
	c-0.3-0.3-0.5-0.6-0.8-0.8c-0.4-0.4-0.7-0.7-1-0.9l-0.2-0.2c-0.3-0.2-0.5-0.3-0.7-0.4l-6.9-7.2c-0.7-0.7-1.8-0.7-2.5,0
	c-0.3,0.3-0.5,0.8-0.5,1.2c0,0.5,0.2,0.9,0.5,1.2l9.2,9.6c0.1,0.1,0.1,0.1,0.2,0.1v0.1c0,0.5-0.3,1.2-0.7,1.6
	c-0.6,0.6-2.1,0.8-2.9,0.1l-1.3-1.3l-0.1-0.1c-0.1,0-0.2-0.1-0.2-0.2l-0.1-0.1c-0.1,0-0.1-0.1-0.2-0.1l-6-6.2
	c-0.7-0.7-1.8-0.7-2.5,0c-0.3,0.3-0.5,0.8-0.5,1.2c0,0.5,0.2,0.9,0.5,1.2l6.1,6.2l0.1,0.1l1.5,1.6l0,0l0,0l0.1,0.1l0.1,0.1
	c0.4,0.3,0.4,0.5,0.4,0.7c0,0.3-0.2,0.8-1,1.6c-0.4,0.4-1,0.4-1.4,0.3c-0.7-0.1-1.3-0.5-1.9-1c-0.9-1-1.4-1.6-1.9-1.9l-4.7-4.7
	c-0.7-0.7-1.8-0.7-2.5,0s-0.7,1.8,0,2.5l6.5,6.5c0.1,0.1,0.2,0.1,0.2,0.2s0,0.1,0,0.2c-0.1,0.3-0.4,0.7-0.6,0.9
	c-1.1,0.8-1.8,0.2-1.8,0.2l-5.4-3.4c0.1-2.1-0.2-4.1-0.4-5.1c-0.5-2.1-2-3.5-3.6-4l0,0c-0.4-1.9-2.2-4-4.8-4c-0.4,0-0.8,0-1.2,0.1
	c-0.4-1.3-1.1-2.3-2.2-2.9c-1.2-0.6-2.7-0.6-4.3,0.1c-0.4,0.2-0.8,0.4-1.2,0.7c-1-1.2-2.8-2.1-4.3-2.1c-0.4,0-0.9,0.1-1.4,0.3
	s-1,0.6-1.5,1l-13.8-8.8c-1.2-0.8-1.5-2.4-0.8-3.5l8.8-14.1c0.7-1.1,2.1-1.6,3.3-0.9l5.9,3c1.5,0.8,3.2,0.9,4.8,0.3
	c2.4-0.9,5.1-1.6,7.7-2.2c-4.4,3.9-10.8,7.8-8.7,11.3c0.7,1.1,1.9,1.8,3.3,2c3.7,0.7,6.6,1.3,14-4.2c0.2-0.2,0.7-0.4,1.3-0.5
	c1-0.1,2,0.4,2.4,1.2c3.1,5.5,8.5,8.5,12.5,10.1h0.1c0.2,0.1,0.5,0.2,0.8,0.5c0.6,0.5,1.1,1,1.6,1.6c0.6,0.6,1.1,1.1,1.7,1.6
	c2.5,2.3,4.4,4.1,5.5,5.9C69.188,35.375,69.788,36.375,68.988,37.275z M32.288,48.175C32.288,48.175,32.188,48.175,32.288,48.175
	c-0.5,0.3-0.7,0.3-1,0.3c-0.5,0-1.2-1.1-1.6-2.6v-0.6c0-0.4,0-0.9,0.1-1.5c0.5-2.2,2-5,3.5-5.7h0.1c0.3-0.2,0.7-0.3,1.1-0.3
	c0.7,0,1.1,0.5,1.2,0.8c-0.9,0.5-1.8,1.3-2.5,2.2c-0.7,1-1.4,2.6-1.4,4.9C31.988,46.475,32.088,47.275,32.288,48.175z
	 M25.088,44.775c-0.6-0.3-1.1-1.1-1.4-2.4c-0.2-0.8,0-1.9,0.5-3c0,0,0-0.1,0.1-0.1c0-0.1,0.1-0.2,0.1-0.3c0.4-0.9,1-1.8,1.7-2.5
	l0.5-0.5v-0.1c0.5-0.5,1-0.8,1.5-1.1c0.4-0.2,0.7-0.2,1-0.2c0.4,0,0.7,0.5,0.9,0.9c0,0.2,0,0.4-0.1,0.7c-2.3,2.1-3.7,5.8-3.8,8.5
	C25.688,44.875,25.388,44.975,25.088,44.775z M21.188,33.675h0.1c0.4,0,1.3,0.4,1.6,0.8c0,0,0,0.1,0,0.2c0,0,0,0,0,0.1
	c-1.3,1.6-2.3,3.5-2.7,5.2c-1.1-0.2-1.6-0.7-1.7-1.7C18.588,36.575,19.888,34.275,21.188,33.675z M35.788,47.475
	c-0.4-2-0.2-3.6,0.6-4.6c0.5-0.7,1-1,1.4-1.2h0.5c0.5,0.1,1.2,0.6,1.5,1.7c0.5,1.7,0.4,6-0.5,7.4
	C37.288,50.575,36.188,49.475,35.788,47.475z M70.588,31.775c-1.1-1.4-2.6-2.8-4.2-4.4l-0.9-0.9c-0.5-0.4-1-0.9-1.5-1.5
	c-0.5-0.5-1.1-1.1-1.7-1.6c-0.6-0.6-1.3-1-2.1-1.4c-2.8-1.1-8-3.6-10.7-8.5c-1-1.8-3.1-3-5.3-3c-0.2,0-0.5,0-0.9,0.2
	c-1.1,0.1-2.2,0.6-2.9,1.3c-5.7,4.7-8.6,3.9-11.1,3.4c-0.6-0.2-0.9-0.3-1-0.5c-0.8-1.3,5-4.2,10.2-8.8c4.7-4.2,9.6-1.8,9.7-1.8
	l12.1,5.5c1.5,0.7,3.2,0.7,4.8,0.1l9.7-3.9c0.7-0.3,1.4-0.3,2,0c0.8,0.4,1.2,1,1.4,1.5l5.7,15.6c0.4,1.2-0.1,2.6-1.3,3.2
	L70.588,31.775z"/>
</svg>