<!-- Generator: Adobe Illustrator 19.0.0, SVG Export Plug-In  -->
<svg version="1.1"
	 xmlns="http://www.w3.org/2000/svg" xmlns:xlink="http://www.w3.org/1999/xlink" xmlns:a="http://ns.adobe.com/AdobeSVGViewerExtensions/3.0/"
	 x="0px" y="0px" width="76.2px" height="76.2px" viewBox="0 0 76.2 76.2" style="enable-background:new 0 0 76.2 76.2;"
	 xml:space="preserve">
<defs>
</defs>
<g>
	<path d="M38.1,76.2C17.1,76.2,0,59.1,0,38.1S17.1,0,38.1,0s38.1,17.1,38.1,38.1S59.1,76.2,38.1,76.2z M38.1,3.3
		C18.9,3.3,3.3,18.9,3.3,38.1s15.6,34.8,34.8,34.8s34.8-15.6,34.8-34.8C72.8,18.9,57.3,3.3,38.1,3.3z"/>
	<g>
		<path d="M38.1,56.3c-6.4,0-11.6-4.5-11.6-9.9c0-0.9,0.7-1.7,1.7-1.7s1.7,0.7,1.7,1.7c0,3.7,3.7,6.6,8.3,6.6s8.3-3,8.3-6.6
			s-3.7-6.6-8.3-6.6c-6.4,0-11.6-4.5-11.6-9.9S31.8,20,38.2,20s11.6,4.5,11.6,9.9c0,0.9-0.7,1.7-1.7,1.7s-1.7-0.7-1.7-1.7
			c0-3.7-3.7-6.6-8.3-6.6s-8.3,3-8.3,6.6s3.7,6.6,8.3,6.6c6.4,0,11.6,4.5,11.6,9.9S44.5,56.3,38.1,56.3z"/>
		<path d="M38.1,59.6c-0.9,0-1.7-0.7-1.7-1.7V18.2c0-0.9,0.7-1.7,1.7-1.7s1.7,0.7,1.7,1.7v39.7C39.7,58.9,39,59.6,38.1,59.6z"/>
	</g>
</g>
</svg>