<!-- Generator: Adobe Illustrator 19.0.0, SVG Export Plug-In  -->
<svg version="1.1"
	 xmlns="http://www.w3.org/2000/svg" xmlns:xlink="http://www.w3.org/1999/xlink" xmlns:a="http://ns.adobe.com/AdobeSVGViewerExtensions/3.0/"
	 x="0px" y="0px" width="88.003px" height="71px" viewBox="0 0 88.003 71" style="enable-background:new 0 0 88.003 71;"
	 xml:space="preserve">
<defs>
</defs>
<g>
	<path d="M26.4,44.2c0,0.2,0,0.4,0.1,0.6c0,0,0,0,0,0.1c1.1,8.4,8.3,14.8,17,14.8c8.9,0,16.3-6.9,17.1-15.6c0-0.1,0-0.2,0-0.3
		c0-0.2,0-0.3,0-0.5c0-0.3,0-0.6,0-0.8s0-0.6,0-0.8s0-0.3,0-0.5c0-0.1,0-0.2,0-0.3c-0.8-8.7-8.2-15.6-17.1-15.6
		c-8.7,0-15.9,6.5-17,14.8l0,0c0,0.2,0,0.4-0.1,0.7c0,0.1,0,0.2,0,0.3c0,0.2,0,0.3,0,0.5c0,0.3,0,0.6,0,0.8s0,0.6,0,0.8s0,0.3,0,0.5
		C26.4,44,26.4,44.1,26.4,44.2z M57.6,49.5c0,0-0.1,0.1-0.1,0.2s-0.1,0.3-0.2,0.4c0,0.1-0.1,0.2-0.2,0.3c-0.1,0.1-0.1,0.3-0.2,0.3
		c0,0.1-0.1,0.2-0.2,0.3c-0.1,0.1-0.1,0.2-0.2,0.3c0,0.1-0.1,0.2-0.2,0.3c-0.1,0.1-0.2,0.2-0.3,0.3s-0.1,0.2-0.2,0.3
		c-0.1,0.1-0.2,0.2-0.3,0.3s-0.1,0.2-0.2,0.3c-0.1,0.1-0.2,0.2-0.3,0.3s-0.1,0.2-0.2,0.3c-0.1,0.1-0.2,0.2-0.3,0.3s-0.2,0.2-0.2,0.2
		c-0.1,0.1-0.2,0.2-0.3,0.3s-0.2,0.1-0.3,0.2s-0.2,0.2-0.3,0.3s-0.2,0.1-0.3,0.2s-0.2,0.2-0.3,0.3s-0.2,0.1-0.3,0.2
		s-0.2,0.2-0.3,0.3c-0.1,0-0.2,0.1-0.3,0.2s-0.3,0.2-0.3,0.2c-0.1,0-0.2,0.1-0.3,0.2s-0.3,0.1-0.4,0.2c-0.1,0-0.2,0.1-0.3,0.2
		s-0.3,0.1-0.4,0.2c-0.1,0-0.2,0.1-0.3,0.1s-0.3,0.1-0.4,0.2c-0.1,0-0.2,0.1-0.3,0.1s-0.3,0.1-0.4,0.2c-0.1,0-0.2,0.1-0.3,0.1
		c0,0,0,0-0.1,0c1.8-1.8,3.3-4.6,4.2-7.8c0.1-0.2,0.2-0.4,0.5-0.4h4.4C57.6,49.3,57.6,49.4,57.6,49.5z M58.4,38
		c0.3,0.9,0.5,1.8,0.6,2.8l0,0c0,0.2,0,0.3,0,0.5c0,0.1,0,0.2,0,0.3s0,0.2,0,0.3c0,0.3,0,0.5,0,0.7s0,0.5,0,0.7c0,0.1,0,0.2,0,0.3
		s0,0.2,0,0.3c0,0.2,0,0.3,0,0.5l0,0c-0.1,0.9-0.3,1.9-0.6,2.8c-0.1,0.2-0.3,0.3-0.5,0.3h-4.1c-0.3,0-0.5-0.3-0.5-0.6
		c0.2-1.4,0.3-2.9,0.3-4.5s-0.1-3-0.3-4.5c0-0.3,0.2-0.5,0.5-0.5h4.1C58.1,37.6,58.3,37.8,58.4,38z M48.8,27.9
		C48.9,28,49,28,49.1,28s0.3,0.1,0.4,0.2c0.1,0,0.2,0.1,0.3,0.1s0.3,0.1,0.4,0.2c0.1,0,0.2,0.1,0.3,0.1s0.3,0.1,0.4,0.2
		c0.1,0,0.2,0.1,0.3,0.2s0.3,0.1,0.3,0.2c0.1,0,0.2,0.1,0.3,0.2s0.2,0.1,0.3,0.2c0.1,0,0.2,0.1,0.3,0.2s0.2,0.2,0.3,0.3
		s0.2,0.1,0.3,0.2s0.2,0.2,0.3,0.3s0.2,0.1,0.3,0.2s0.2,0.2,0.3,0.3s0.2,0.1,0.3,0.2s0.2,0.2,0.3,0.3s0.2,0.2,0.3,0.2
		c0.1,0.1,0.2,0.2,0.3,0.3s0.2,0.2,0.2,0.3c0.1,0.1,0.2,0.2,0.3,0.3s0.1,0.2,0.2,0.3c0.1,0.1,0.2,0.2,0.3,0.3s0.1,0.2,0.2,0.3
		c0.1,0.1,0.2,0.2,0.2,0.3s0.1,0.2,0.2,0.3c0.1,0.1,0.1,0.2,0.2,0.3c0,0.1,0.1,0.2,0.2,0.3c0.1,0.1,0.1,0.2,0.2,0.3
		c0,0.1,0.1,0.2,0.2,0.3c0,0.1,0.1,0.3,0.2,0.3c0,0.1,0.1,0.2,0.2,0.3c0,0,0,0.1,0.1,0.2h-4.4c-0.2,0-0.4-0.1-0.5-0.4
		C52,32.4,50.5,29.7,48.8,27.9C48.8,27.8,48.8,27.8,48.8,27.9z M44.3,27.7c0-0.3,0.3-0.6,0.6-0.5c2.8,0.8,5.1,4,6.4,8.3
		c0.1,0.3-0.1,0.6-0.5,0.6h-6c-0.3,0-0.5-0.2-0.5-0.5V27.7z M44.3,38.1c0-0.3,0.2-0.5,0.5-0.5h6.6c0.2,0,0.4,0.2,0.5,0.4
		c0.3,1.5,0.4,3,0.4,4.6s-0.1,3.2-0.4,4.6c0,0.2-0.2,0.4-0.5,0.4h-6.6c-0.3,0-0.5-0.2-0.5-0.5V38.1z M44.3,49.6
		c0-0.3,0.2-0.5,0.5-0.5h6c0.3,0,0.6,0.3,0.5,0.6C50,54,47.7,57.2,44.9,58c-0.3,0.1-0.6-0.1-0.6-0.5V49.6z M36.4,56.6
		c-2.9-1.5-5.3-3.8-6.8-6.7c-0.2-0.3,0.1-0.7,0.4-0.7h3.6c0.2,0,0.4,0.1,0.5,0.4c0.7,2.5,1.7,4.6,2.9,6.3
		C37.3,56.3,36.9,56.8,36.4,56.6z M42.7,57.6c0,0.3-0.3,0.6-0.6,0.5c-2.8-0.8-5.1-4-6.4-8.3c-0.1-0.3,0.1-0.6,0.5-0.6h6
		c0.3,0,0.5,0.2,0.5,0.5V57.6z M42.7,47.2c0,0.3-0.2,0.5-0.5,0.5h-6.6c-0.2,0-0.4-0.2-0.5-0.4c-0.3-1.5-0.4-3-0.4-4.6
		s0.1-3.2,0.4-4.6c0-0.2,0.2-0.4,0.5-0.4h6.6c0.3,0,0.5,0.2,0.5,0.5V47.2z M42.1,27.2c0.3-0.1,0.6,0.1,0.6,0.5v8
		c0,0.3-0.2,0.5-0.5,0.5h-6c-0.3,0-0.6-0.3-0.5-0.6C37,31.1,39.3,28,42.1,27.2z M29.6,35.4c1.5-2.8,3.8-5.2,6.7-6.7
		c0.5-0.2,0.9,0.3,0.6,0.7c-1.2,1.7-2.2,3.8-2.9,6.3c-0.1,0.2-0.2,0.4-0.5,0.4h-3.6C29.7,36.1,29.5,35.7,29.6,35.4z M27.9,43.3
		c0-0.3,0-0.5,0-0.7s0-0.5,0-0.7c0-0.1,0-0.2,0-0.3s0-0.2,0-0.3c0-0.2,0-0.3,0-0.5c0,0,0,0,0-0.1c0.1-0.9,0.3-1.8,0.6-2.8
		c0.1-0.2,0.3-0.3,0.5-0.3h4.1c0.3,0,0.5,0.3,0.5,0.6c-0.2,1.4-0.3,2.9-0.3,4.5s0.1,3,0.3,4.5c0,0.3-0.2,0.5-0.5,0.5H29
		c-0.2,0-0.4-0.1-0.5-0.3c-0.3-0.8-0.5-1.7-0.6-2.6v-0.1c0-0.2,0-0.3,0-0.5c0-0.1,0-0.2,0-0.3C27.9,43.5,27.9,43.5,27.9,43.3z"/>
	<path d="M82,0H6.1C2.8,0,0,2.7,0,6.1v58.8C0,68.3,2.8,71,6.1,71h75.8c3.3,0,6.1-2.7,6.1-6.1V6.1C88.1,2.8,85.4,0,82,0z M84.9,65
		c0,1.6-1.3,2.9-3,2.9H6.1c-1.6,0-3-1.3-3-3V20.2h81.8V65z M84.9,17H3.1V6c0-1.6,1.3-2.9,3-2.9h75.8c1.6,0,3,1.3,3,3V17z"/>
	<path d="M26,9c-0.3,0.3-0.4,0.6-0.4,1.1c0,0.4,0.2,0.8,0.4,1.1c0.3,0.3,0.8,0.4,1.2,0.4s0.8-0.2,1.1-0.4c0.3-0.3,0.4-0.6,0.4-1.1
		c0-0.4-0.2-0.8-0.4-1.1C27.6,8.5,26.6,8.5,26,9z"/>
	<path d="M9,9c-0.3,0.3-0.4,0.7-0.4,1.1c0,0.4,0.2,0.8,0.4,1.1c0.3,0.3,0.8,0.4,1.2,0.4s0.8-0.2,1.1-0.4c0.3-0.3,0.4-0.6,0.4-1.1
		c0-0.4-0.2-0.8-0.4-1.1C10.6,8.5,9.7,8.5,9,9z"/>
	<path d="M17.5,9c-0.3,0.3-0.4,0.6-0.4,1.1c0,0.4,0.2,0.8,0.4,1.1c0.3,0.3,0.8,0.4,1.2,0.4s0.8-0.2,1.1-0.4c0.3-0.3,0.4-0.7,0.4-1.1
		c0-0.4-0.2-0.8-0.4-1.1C19.1,8.5,18,8.5,17.5,9z"/>
</g>
</svg>