<!-- Generator: Adobe Illustrator 19.0.0, SVG Export Plug-In  -->
<svg version="1.1"
	 xmlns="http://www.w3.org/2000/svg" xmlns:xlink="http://www.w3.org/1999/xlink" xmlns:a="http://ns.adobe.com/AdobeSVGViewerExtensions/3.0/"
	 x="0px" y="0px" width="71.633px" height="62.433px" viewBox="0 0 71.633 62.433"
	 style="enable-background:new 0 0 71.633 62.433;" xml:space="preserve">
<style type="text/css">
	.st0{fill:none;}
	.st1{fill:none;stroke:#000000;stroke-width:1.6669;stroke-miterlimit:10;}
</style>
<defs>
</defs>
<g>
	<path class="st0" d="M2.6,30.6c0.2,0.2,0.5,0.3,0.8,0.3h23.8v-1.8h-25C2.3,29.7,2.3,30.4,2.6,30.6z"/>
	<path class="st0" d="M42.4,30.8h5.8c0.3,0,0.7,0,0.7-0.2c0.2-0.2,0.2-0.8,0.2-1.3c0-0.1,0-0.1,0-0.2h-6.7V30.8z"/>
	<path class="st0" d="M40.8,24.1v-0.8c0-0.5-0.3-0.8-0.8-0.8H30c-0.5,0-0.8,0.3-0.8,0.8v5.8v3.3v0.8c0,0.5,0.3,0.8,0.8,0.8h10
		c0.5,0,0.8-0.3,0.8-0.8v-0.8v-3.3V24.1z"/>
	<g>
		<path class="st0" d="M28.1,21.6c0.5-0.5,1.1-0.8,1.8-0.8h10c1,0,2,0.7,2.3,1.7H49V3.8c0-0.2,0-0.3,0-0.5s0-0.5,0-0.5
			s-0.2-0.2-0.8-0.2H3.5c-0.8,0-1,0.2-1.2,0.2C2.1,3,2.1,3.3,2.1,3.6v18.8h25.2C27.6,22.2,27.9,21.9,28.1,21.6z"/>
	</g>
	<path d="M27.5,22.5L27.5,22.5c0.2-0.3,0.4-0.6,0.6-0.8C27.9,21.9,27.6,22.2,27.5,22.5z"/>
	<rect x="42.3" y="29.1" width="0.2" height="1.7"/>
	<path d="M39.8,21c1,0,1.9,0.6,2.3,1.5h0.2c-0.4-0.9-1.3-1.7-2.3-1.7H30c-0.7,0-1.4,0.3-1.8,0.8c0.4-0.4,1-0.7,1.7-0.7h9.9L39.8,21
		L39.8,21z"/>
	<polygon points="42.3,30.8 42.3,29.1 40.8,29.1 40.8,32.5 42.4,32.5 42.4,30.8 	"/>
	<rect x="27.4" y="29.1" width="1.7" height="3.3"/>
	<rect x="33.3" y="35.8" width="0.8" height="1.7"/>
	<rect x="35.8" y="35.8" width="0.8" height="1.7"/>
	<polygon points="35.8,35.8 36.6,35.8 36.6,35 33.3,35 33.3,35.8 34.1,35.8 	"/>
	<rect x="27.3" y="24.1" width="0.2" height="3.3"/>
	<path d="M27.3,23.5v0.7h0.2v-0.8c0-0.3,0.1-0.6,0.2-0.8h-0.1C27.4,22.8,27.3,23.1,27.3,23.5z"/>
	<path d="M0.8,29.1L0.8,29.1c0-0.1,0-0.2,0-0.3V29.1z"/>
	<rect x="27.3" y="27.5" width="0.2" height="1.7"/>
	<path d="M42.3,23.5v0.7h0.2v-0.8c0-0.3-0.1-0.6-0.2-0.8h-0.2C42.2,22.8,42.3,23.1,42.3,23.5z"/>
	<path d="M42.3,23.5c0-0.4-0.1-0.7-0.2-1h-1.3v0.8v0.8h1.5V23.5z"/>
	<polygon points="42.4,27.5 42.4,24.1 42.3,24.1 42.3,29.1 42.4,29.1 	"/>
	<g>
		<rect x="34.1" y="35.8" width="1.7" height="1.7"/>
		<g>
			<path d="M51.2,0.9C50.4,0.1,49.4,0,48.5,0H3.8C2.6,0,1.7,0.2,0.9,0.9C0,1.8,0,2.7,0,3.6v18.8v6.7c0,1,0.1,2.3,1.1,3.2
				c0.8,0.8,1.8,0.9,2.6,0.9h23.8l0,0c0,1.3,1.2,2.5,2.5,2.5h3.3v-0.8h3.3v0.8h3.3c1.3,0,2.5-1.2,2.5-2.5l0,0h5.8
				c0.9,0,1.7-0.2,2.5-0.6l0.2-0.1l0.1-0.1c0.8-1.1,0.8-2.3,0.8-3.2v-26C51.9,2.6,51.9,1.6,51.2,0.9z M26.5,30.2h-23
				c-0.1,0-0.2-0.1-0.3-0.1c0-0.1-0.1-0.2-0.1-1h23.4V30.2L26.5,30.2z M48.3,22.5h-6c0.1,0.3,0.2,0.5,0.2,0.8v0.8v3.3v1.7h5.9v0.2
				c0,0.2,0,0.5,0,0.7l0,0h-6.6v2.5h-0.9v0.8c0,0.5-0.3,0.8-0.8,0.8h-10c-0.5,0-0.8-0.3-0.8-0.8v-0.8h-0.9v-3.3h0.9v-5.8
				c0-0.5,0.3-0.8,0.8-0.8h10c0.5,0,0.8,0.3,0.8,0.8v-0.8h1.3c-0.4-0.9-1.3-1.5-2.3-1.5h-10c-0.6,0-1.2,0.3-1.7,0.7
				c-0.2,0.2-0.4,0.5-0.5,0.8s-0.2,0.5-0.2,0.8v0.8v3.3v0.9h-0.2v-0.9v-3.3v-0.7c0-0.4,0.1-0.7,0.2-1H3.1V3.7c0-0.1,0-0.1,0-0.2
				c0.1,0,0.3,0,0.5,0h44.7l0,0L48.3,22.5L48.3,22.5z"/>
			<rect x="40.8" y="24.1" width="1.5" height="5"/>
		</g>
	</g>
	<path class="st1" d="M66.6,61.5h4.2V48.3v-0.8v-5.8c0-1.8-1.5-3.3-3.3-3.3H36.7v0.8h-3.3v-0.8h-0.8c-1.8,0-3.3,1.5-3.3,3.3v19.9
		h4.2h33.1L66.6,61.5L66.6,61.5z"/>
	<polygon points="36.6,38.3 36.6,37.5 35.8,37.5 34.1,37.5 33.3,37.5 33.3,38.3 	"/>
	<path class="st1" d="M33.3,49.1v12.3h33.3V48.9c0-0.9-0.7-1.6-1.6-1.6H34.9C34,47.4,33.3,48.2,33.3,49.1z"/>
	<circle cx="42.1" cy="43.6" r="1.3"/>
	<path d="M45.9,44.5h8.9c0.6,0,1-0.4,1-1s-0.4-1-1-1h-8.9c-0.6,0-1,0.4-1,1S45.3,44.5,45.9,44.5z"/>
</g>
</svg>