<!-- Generator: Adobe Illustrator 19.0.0, SVG Export Plug-In  -->
<svg version="1.1"
	 xmlns="http://www.w3.org/2000/svg" xmlns:xlink="http://www.w3.org/1999/xlink" xmlns:a="http://ns.adobe.com/AdobeSVGViewerExtensions/3.0/"
	 x="0px" y="0px" width="58.175px" height="84.602px" viewBox="0 0 58.175 84.602"
	 style="enable-background:new 0 0 58.175 84.602;" xml:space="preserve">
<defs>
</defs>
<g>
	<circle cx="21.451" cy="73.851" r="2.5"/>
	<circle cx="29.151" cy="8.851" r="1.3"/>
	<path d="M53.951,7.651l-30.8-7.5c-3-0.7-6.1,1.1-6.8,4.1l-16.2,65.9c-0.7,3,1.1,6.1,4.1,6.8l30.7,7.5c3,0.7,6.1-1.1,6.8-4.1
		l16.2-65.9C58.851,11.551,56.951,8.451,53.951,7.651z M40.151,79.951c-0.5,2-2.5,3.3-4.6,2.8l-30.8-7.5c-2-0.5-3.3-2.5-2.8-4.6
		l16.2-65.9c0.5-2,2.5-3.3,4.6-2.8l30.7,7.5c2,0.5,3.3,2.5,2.8,4.6L40.151,79.951L40.151,79.951z"/>
	<path d="M32.451,10.651l8.4,2.1c0.5,0.1,1-0.1,1.1-0.7s-0.1-1-0.7-1.1l-8.4-2.1c-0.5-0.1-1,0.1-1.1,0.7
		C31.651,10.051,31.951,10.551,32.451,10.651z"/>
	<path d="M51.851,19.251l-32-7.9c-0.5-0.1-1,0.1-1.1,0.7l-12.6,51.5c-0.1,0.5,0.1,1,0.7,1.1l32.1,7.9c0.5,0.1,1-0.1,1.1-0.7
		l12.6-51.5C52.651,19.851,52.351,19.451,51.851,19.251z M38.251,70.551l-30.2-7.4l12.2-49.7l30.3,7.4L38.251,70.551L38.251,70.551z
		"/>
</g>
</svg>