<!-- Generator: Adobe Illustrator 19.0.0, SVG Export Plug-In  -->
<svg version="1.1"
	 xmlns="http://www.w3.org/2000/svg" xmlns:xlink="http://www.w3.org/1999/xlink" xmlns:a="http://ns.adobe.com/AdobeSVGViewerExtensions/3.0/"
	 x="0px" y="0px" width="71.632px" height="83.6px" viewBox="0 0 71.632 83.6" style="enable-background:new 0 0 71.632 83.6;"
	 xml:space="preserve">
<defs>
</defs>
<g>
	<path d="M8.7,31.5h45.5c0.4,0,0.6-0.3,0.6-0.6s-0.3-0.6-0.6-0.6H8.7c-0.4,0-0.6,0.3-0.6,0.6S8.3,31.5,8.7,31.5z"/>
	<path d="M8.7,18.9h45.5c0.4,0,0.6-0.3,0.6-0.6c0-0.4-0.3-0.6-0.6-0.6H8.7c-0.4,0-0.6,0.3-0.6,0.6C8,18.6,8.3,18.9,8.7,18.9z"/>
	<path d="M8.7,13h45.5c0.4,0,0.6-0.3,0.6-0.6s-0.3-0.6-0.6-0.6H8.7c-0.4,0-0.6,0.3-0.6,0.6S8.3,13,8.7,13z"/>
	<path d="M8.7,37.9h45.5c0.4,0,0.6-0.3,0.6-0.6c0-0.4-0.3-0.6-0.6-0.6H8.7c-0.4,0-0.6,0.3-0.6,0.6C8,37.6,8.3,37.9,8.7,37.9z"/>
	<path d="M50,70.4H27.5c-0.4,0-0.6,0.3-0.6,0.6c0,0.4,0.3,0.6,0.6,0.6H50c0.4,0,0.6-0.3,0.6-0.6C50.7,70.6,50.4,70.4,50,70.4z"/>
	<path d="M19.2,69.6c-0.2-0.2-0.2-0.7,0-0.9l3.2-3.2c0.3-0.3,0.2-0.7,0-0.9l0,0c-0.3-0.2-0.7-0.2-0.9,0l-3.2,3.2
		c-0.2,0.2-0.7,0.2-0.9,0l-3.2-3.2c-0.2-0.2-0.7-0.2-0.9,0s-0.3,0.7,0,0.9l3.2,3.2c0.2,0.2,0.2,0.7,0,0.9l-3.2,3.2
		c-0.2,0.2-0.2,0.7,0,0.9l0,0c0.2,0.3,0.7,0.3,0.9,0l3.2-3.2c0.2-0.3,0.7-0.3,0.9,0l3.2,3.2c0.2,0.3,0.7,0.3,0.9,0l0,0
		c0.2-0.2,0.2-0.7,0-0.9L19.2,69.6z"/>
	<path d="M70,15.3c-1.4-0.7-3.2-0.1-3.9,1.3l-2.9,5.9V4.2C63.2,1.9,61.3,0,59,0H4.2C1.9,0,0,1.9,0,4.2v75.2c0,2.3,1.9,4.2,4.2,4.2
		H59c2.3,0,4.2-1.9,4.2-4.2V35.6l8.2-16.4C72,17.8,71.4,16,70,15.3z M60.2,78.1c0,1.4-1.2,2.6-2.6,2.6H5.4c-1.4,0-2.6-1.2-2.6-2.6
		V5.4C2.8,4,4,2.8,5.4,2.8h52.2c1.4,0,2.6,1.2,2.6,2.6v22.8l-7.4,14.9H8.7c-0.4,0-0.6,0.3-0.6,0.6s0.3,0.6,0.6,0.6h43.5l-2.6,5.2
		H8.7c-0.4,0-0.6,0.3-0.6,0.6c0,0.4,0.3,0.6,0.6,0.6H49l-2.6,5.2H8.7c-0.4,0-0.6,0.3-0.6,0.6c0,0.4,0.3,0.6,0.6,0.6h37l-1.6,3.3
		c-0.3,0.6-0.9,5.6-1.2,8c-0.1,0.4,0.4,0.7,0.8,0.4c1.7-1.6,5.4-5.2,5.7-5.7l3-5.9h1.9c0.4,0,0.6-0.3,0.6-0.6c0-0.4-0.3-0.6-0.6-0.6
		H53l7.3-14.7L60.2,78.1z"/>
</g>
</svg>