<!-- Generator: Adobe Illustrator 19.0.0, SVG Export Plug-In  -->
<svg version="1.1"
	 xmlns="http://www.w3.org/2000/svg" xmlns:xlink="http://www.w3.org/1999/xlink" xmlns:a="http://ns.adobe.com/AdobeSVGViewerExtensions/3.0/"
	 x="0px" y="0px" width="77.4px" height="57.975px" viewBox="0 0 77.4 57.975" style="enable-background:new 0 0 77.4 57.975;"
	 xml:space="preserve">
<defs>
</defs>
<path d="M61.6,18.4C59.5,7.9,50.1,0,39.2,0C26.6,0,16.3,10.2,16.3,22.9c0,0.5,0,1,0.1,1.6C9.5,25.2,4.2,31.1,4.1,38.1
	c0,3.7,1.3,6.7,2.5,8.8L1,52.5c-0.7,0.7-1,1.6-1,2.5v0.3c0,1.8,2.2,2.7,3.5,1.4l11.6-11.6l12.2,12.2c0.9,0.9,2.4,0.9,3.4,0L54,34
	v2.7c0,1.3,1.1,2.4,2.4,2.4s2.4-1.1,2.4-2.4v-9.2c0-0.9-0.7-1.6-1.6-1.6H48c-1.3,0-2.4,1.1-2.4,2.4s1.1,2.4,2.4,2.4h2.7L29,52.4
	L16.8,40.2c-0.9-0.9-2.4-0.9-3.4,0l-4.6,4.6c-1.7-2.5-1.6-5.3-1.6-6.6c0-5.9,4.8-10.7,10.6-10.7c0.1,0,0.3,0,0.3,0
	c0.4-0.1,0.9-0.2,1.2-0.5s0.4-0.8,0.4-1.2c-0.2-1.1-0.2-2-0.2-2.9c0-10.9,8.9-19.8,19.8-19.8c9.8,0,18.2,7.3,19.6,17
	c0.1,0.8,0.9,1.3,1.7,1.3c7.6,0,13.7,6.2,13.7,13.7c0,7.6-6.2,13.7-13.7,13.7H43c-0.8,0-1.5,0.7-1.5,1.5s0.7,1.5,1.5,1.5h17.6
	c9.2,0,16.8-7.5,16.8-16.8C77.3,26.3,70.5,19,61.6,18.4z"/>
</svg>