<!-- Generator: Adobe Illustrator 19.0.0, SVG Export Plug-In  -->
<svg version="1.1"
	 xmlns="http://www.w3.org/2000/svg" xmlns:xlink="http://www.w3.org/1999/xlink" xmlns:a="http://ns.adobe.com/AdobeSVGViewerExtensions/3.0/"
	 x="0px" y="0px" width="73.371px" height="63.207px" viewBox="0 0 73.371 63.207"
	 style="enable-background:new 0 0 73.371 63.207;" xml:space="preserve">
<style type="text/css">
	.st0{fill:#B20F49;}
</style>
<defs>
</defs>
<path class="st0" d="M20.969,31.664v3.424c0,2.8,1.585,5.63,3.525,8.122v5.669c-0.222,0-0.402,0.181-0.402,0.403v4.436l-0.525,0.141
	c-0.14,0.038-0.249,0.146-0.286,0.287c-0.037,0.139,0.004,0.289,0.107,0.391c1.648,1.627,6.879,3.355,13.326,3.355
	c3.435,0,6.768-0.421,9.384-1.186c1.735-0.506,3.005-1.107,3.772-1.785c0.113-0.1,0.161-0.254,0.125-0.4
	c-0.037-0.146-0.152-0.259-0.298-0.294l-0.38-0.091c0.014-0.071,0.021-0.143,0.021-0.215v-4.639c0-0.223-0.181-0.403-0.403-0.403
	v-5.407c1.983-2.553,3.527-5.4,3.527-8.384v-3.424c1.08-0.192,1.905-1.133,1.905-2.269v-5.766c0-1.136-0.825-2.076-1.905-2.269
	v-5.613c0-3.581-1.204-6.886-3.227-9.534c-0.027-0.04-0.054-0.082-0.081-0.121c-0.015-0.021-0.035-0.033-0.053-0.05
	C46.215,2.367,41.738,0,36.713,0c-5.022,0-9.5,2.367-12.386,6.041c-0.018,0.018-0.038,0.03-0.053,0.051
	c-0.027,0.039-0.054,0.081-0.081,0.121c-2.022,2.648-3.226,5.953-3.226,9.534v5.613c-1.081,0.192-1.906,1.133-1.906,2.269v5.766
	C19.063,30.531,19.888,31.471,20.969,31.664z M52.462,22.189c0.631,0.177,1.098,0.752,1.098,1.44v5.766
	c0,0.688-0.467,1.262-1.098,1.44V22.189z M48.128,49.584c0,0.139-0.067,0.285-0.2,0.434c-1.467,0.943-5.528,1.921-11.214,1.921
	c-5.684,0-9.745-0.978-11.211-1.921c-0.133-0.148-0.201-0.295-0.201-0.434v-5.379c1.355,1.611,2.798,3.049,3.951,4.195l0.41,0.41
	c0.782,0.781,2.471,2.023,3.669,2.023h6.496c1.206,0,3.408-1.225,4.214-2.029c1.287-1.288,2.747-2.749,4.086-4.34
	C48.128,44.464,48.128,49.584,48.128,49.584z M41.661,39.855c-0.198-0.102-0.44-0.024-0.542,0.175
	c-0.082,0.158-0.219,0.254-0.368,0.254H32.68c-0.147,0-0.285-0.096-0.365-0.254c-0.104-0.197-0.347-0.275-0.544-0.174
	c-0.198,0.102-0.276,0.344-0.175,0.543c0.219,0.426,0.635,0.691,1.084,0.691h0.982c0.93,1.073,0.782,3.926-0.691,4.032
	c-2.481,0.179-3.613-1.859-3.613-1.859c1.727-3.854,1.727-3.854,1.727-3.854s1.41-0.94,5.631-0.94h0.002
	c4.221,0,5.631,0.94,5.631,0.94s0,0,1.727,3.854c0,0-1.131,2.038-3.613,1.859c-1.474-0.106-1.621-2.959-0.69-4.032h0.98
	c0.45,0,0.866-0.266,1.086-0.693C41.938,40.2,41.859,39.957,41.661,39.855z M21.775,21.723c0-3.328,3.272-5.531,4.599-5.531
	c0.166,0,0.314-0.102,0.376-0.256c0.06-0.155,0.021-0.33-0.101-0.443c-2.214-2.053-2.296-7.713-1.724-8.904
	c0.758-0.973,1.632-1.85,2.604-2.61c2.851,1.066,5.935,1.655,9.157,1.655c3.237,0,6.335-0.596,9.196-1.67
	c0.979,0.764,1.86,1.646,2.623,2.625c0.572,1.191,0.49,6.852-1.723,8.904c-0.122,0.113-0.161,0.288-0.102,0.443
	c0.061,0.154,0.21,0.256,0.376,0.256c1.326,0,4.599,2.203,4.599,5.531v3.712h-2.85c-0.122-1.538-0.932-2.884-2.121-3.731h0.469
	l0.891,0.676c0.146,0.11,0.318,0.164,0.486,0.164c0.244,0,0.485-0.111,0.645-0.32c0.27-0.355,0.198-0.861-0.156-1.13l-1.107-0.839
	c-0.006-0.004-0.014-0.007-0.019-0.012c-0.023-0.018-0.049-0.029-0.073-0.044c-0.021-0.013-0.043-0.024-0.065-0.035
	s-0.048-0.019-0.073-0.026c-0.025-0.01-0.051-0.019-0.077-0.024c-0.022-0.005-0.046-0.007-0.069-0.011
	c-0.029-0.004-0.06-0.008-0.09-0.01c0,0-0.014-0.002-0.021-0.002h-7.346c-0.446,0-0.808,0.361-0.808,0.808
	c0,0.445,0.361,0.806,0.808,0.806h0.739c-0.77,0.549-1.383,1.303-1.751,2.187c-0.655-0.591-1.48-0.923-2.353-0.923
	c-0.87,0-1.696,0.332-2.351,0.922c-0.368-0.883-0.981-1.637-1.751-2.186h0.739c0.445,0,0.806-0.36,0.806-0.806
	s-0.36-0.808-0.806-0.808h-7.345l-0.019,0.002c-0.029,0.002-0.057,0.006-0.086,0.009c-0.025,0.005-0.049,0.007-0.073,0.011
	c-0.024,0.006-0.048,0.014-0.07,0.022c-0.026,0.009-0.055,0.017-0.081,0.028c-0.02,0.01-0.038,0.021-0.058,0.031
	c-0.027,0.016-0.054,0.029-0.08,0.049c-0.005,0.003-0.011,0.005-0.016,0.008l-1.052,0.785c-0.357,0.266-0.432,0.771-0.165,1.129
	c0.157,0.212,0.401,0.324,0.646,0.324c0.168,0,0.337-0.053,0.481-0.16l0.838-0.625h0.473c-1.19,0.848-2,2.193-2.121,3.731h-2.85
	v-3.712H21.775z M48.02,25.838c0,2.354-1.915,4.27-4.269,4.27s-4.268-1.916-4.268-4.27c0-1.992,1.375-3.666,3.224-4.135h2.088
	C46.645,22.172,48.02,23.846,48.02,25.838z M33.948,25.838c0,2.354-1.914,4.27-4.269,4.27s-4.269-1.916-4.269-4.27
	c0-1.992,1.375-3.666,3.225-4.135h2.089C32.573,22.172,33.948,23.846,33.948,25.838z M21.775,26.241h2.85
	c0.206,2.611,2.393,4.673,5.055,4.673c1.986,0,3.704-1.149,4.537-2.815l0.271,2.262c0.025,0.206,0.199,0.355,0.4,0.355
	c0.016,0,0.033,0,0.049-0.002c0.222-0.027,0.379-0.229,0.353-0.448L34.754,25.8c-0.004-0.357-0.043-0.703-0.117-1.037
	c0.541-0.629,1.288-0.988,2.078-0.988c0.793,0,1.539,0.359,2.08,0.988c-0.073,0.334-0.112,0.682-0.115,1.037l-0.538,4.466
	c-0.026,0.22,0.132,0.421,0.353,0.448c0.016,0.002,0.033,0.002,0.049,0.002c0.201,0,0.375-0.149,0.4-0.355l0.271-2.262
	c0.833,1.666,2.551,2.815,4.537,2.815c2.662,0,4.848-2.062,5.055-4.673h2.85v0.44c-1.306,2.74-5.423,11.478-6.774,15.528
	l-1.165-4.145c-0.525-0.664-3.075-2.035-5.964-2.32c0.229-0.135,0.425-0.306,0.635-0.49c0.157-0.137,0.33-0.291,0.545-0.453
	c0.169-0.129,0.367-0.221,0.577-0.32c0.414-0.194,0.907-0.427,1.096-0.982c0.851,0.98,2.158,2.313,3.512,3.002
	c0.059,0.029,0.12,0.043,0.183,0.043c0.147,0,0.288-0.079,0.358-0.219c0.103-0.199,0.023-0.441-0.175-0.542
	c-1.945-0.992-3.896-3.563-4.163-3.923c-0.012-0.017-0.023-0.033-0.037-0.05c-0.133-0.175-0.383-0.212-0.561-0.08
	c-0.177,0.132-0.217,0.382-0.087,0.56c0.005,0.007,0.017,0.023,0.035,0.049c0.133,0.191,0.204,0.416,0.204,0.651
	c0,0.396-0.174,0.511-0.709,0.763c-0.227,0.106-0.483,0.227-0.721,0.405c-0.231,0.177-0.422,0.343-0.591,0.491
	c-0.421,0.373-0.633,0.559-1.14,0.559c0,0-0.009,0.004-0.014,0.004c-0.006,0-0.01-0.004-0.015-0.004
	c-0.506,0-0.718-0.186-1.14-0.559c-0.169-0.148-0.357-0.314-0.592-0.491c-0.236-0.179-0.493-0.299-0.72-0.407
	c-0.535-0.25-0.708-0.365-0.708-0.761c0-0.235,0.069-0.46,0.204-0.651c0.018-0.025,0.03-0.042,0.034-0.049
	c0.13-0.178,0.09-0.428-0.086-0.56c-0.179-0.131-0.428-0.095-0.562,0.08c-0.013,0.017-0.024,0.033-0.036,0.05
	c-0.268,0.359-2.22,2.931-4.164,3.923c-0.198,0.101-0.277,0.343-0.175,0.542c0.07,0.14,0.212,0.219,0.358,0.219
	c0.063,0,0.125-0.014,0.184-0.043c1.353-0.689,2.662-2.021,3.513-3.002c0.187,0.557,0.681,0.788,1.095,0.982
	c0.209,0.1,0.407,0.191,0.577,0.32c0.214,0.162,0.389,0.316,0.544,0.453c0.211,0.186,0.409,0.357,0.639,0.492
	c-2.878,0.291-5.413,1.656-5.938,2.318l-1.165,4.145c-1.353-4.051-5.469-12.788-6.774-15.528v-0.44H21.775z M19.871,23.629
	c0-0.688,0.467-1.264,1.099-1.44v8.646c-0.632-0.179-1.099-0.753-1.099-1.44V23.629z M38.074,19.288
	c-0.543,0-0.984-0.441-0.984-0.985c0-0.224-0.182-0.403-0.403-0.403c-0.224,0-0.403,0.18-0.403,0.403
	c0,0.544-0.442,0.985-0.986,0.985c-0.223,0-0.403,0.181-0.403,0.402c0,0.224,0.181,0.404,0.403,0.404c0.56,0,1.061-0.259,1.39-0.661
	c0.329,0.402,0.829,0.661,1.388,0.661c0.224,0,0.404-0.181,0.404-0.404C38.478,19.468,38.297,19.288,38.074,19.288z M31.89,23.139
	h-4.402c-0.223,0-0.403,0.181-0.403,0.404s0.181,0.402,0.403,0.402h0.741c-0.001,0.01-0.005,0.02-0.005,0.029v0.709
	c0,0.238,0.192,0.432,0.43,0.432h2.069c0.238,0,0.431-0.193,0.431-0.432v-0.709c0-0.01-0.004-0.02-0.006-0.029h0.742
	c0.223,0,0.402-0.18,0.402-0.402C32.292,23.32,32.113,23.139,31.89,23.139z M45.952,23.139h-4.401c-0.223,0-0.403,0.181-0.403,0.404
	s0.181,0.402,0.403,0.402h0.741c0,0.01-0.005,0.02-0.005,0.029v0.709c0,0.238,0.191,0.432,0.431,0.432h2.068
	c0.239,0,0.432-0.193,0.432-0.432v-0.709c0-0.01-0.005-0.02-0.006-0.029h0.74c0.224,0,0.404-0.18,0.404-0.402
	C46.356,23.32,46.175,23.139,45.952,23.139z M29.689,16.192h14.063c0.222,0,0.403-0.181,0.403-0.404s-0.182-0.402-0.403-0.402
	H29.689c-0.223,0-0.404,0.18-0.404,0.402C29.285,16.011,29.466,16.192,29.689,16.192z M31.962,14.004h9.515
	c0.222,0,0.403-0.18,0.403-0.403s-0.182-0.403-0.403-0.403h-9.515c-0.222,0-0.402,0.18-0.402,0.403S31.741,14.004,31.962,14.004z
	 M73.334,62.636l-1.748-3.81c-0.054-0.117-0.161-0.201-0.287-0.228l-19.986-3.986c-0.157-0.03-0.319,0.034-0.411,0.167
	c-0.871,1.266-2.991,2.096-4.615,2.571c-2.679,0.782-6.077,1.212-9.572,1.212c-6.506,0-12.77-1.81-14.258-4.119
	c-0.091-0.141-0.259-0.214-0.424-0.176L1.931,58.599c-0.129,0.027-0.235,0.116-0.286,0.238l-1.613,3.809
	c-0.052,0.124-0.04,0.268,0.035,0.379c0.075,0.113,0.201,0.182,0.336,0.182h72.565c0.137,0,0.265-0.07,0.34-0.186
	C73.381,62.906,73.392,62.76,73.334,62.636z"/>
</svg>