<!-- Generator: Adobe Illustrator 19.0.0, SVG Export Plug-In  -->
<svg version="1.1"
	 xmlns="http://www.w3.org/2000/svg" xmlns:xlink="http://www.w3.org/1999/xlink" xmlns:a="http://ns.adobe.com/AdobeSVGViewerExtensions/3.0/"
	 x="0px" y="0px" width="432.482px" height="70.112px" viewBox="0 0 432.482 70.112"
	 style="enable-background:new 0 0 432.482 70.112;" xml:space="preserve">
<style type="text/css">
	.st0{fill:#230850;}
	.st1{fill:#FF004F;}
	.st2{fill:#77776B;}
	.st3{fill:#FFE600;}
</style>
<defs>
</defs>
<g id="XMLID_15_">
	<g id="XMLID_45_">
		<path id="XMLID_95_" d="M72.808,19.232c3.758,0,7.515,0,11.273,0c0,0.939,0,1.879,0,2.818c-3.727,0-7.455,0-11.182,0
			c-1.606,0-2.908-1.302-2.908-2.908c0-2.77,0-5.541,0-8.311c0-1.586,1.285-2.872,2.871-2.872c3.74,0,7.48,0,11.219,0
			c0,0.939,0,1.879,0,2.818c-3.255,0-6.511,0-9.766,0c-0.832,0-1.506,0.674-1.506,1.506c0,0.437,0,0.875,0,1.312
			c3.758,0,7.515,0,11.273,0c0,0.939,0,1.879,0,2.818c-3.3,0-6.6,0-9.9,0c-0.758,0-1.372,0.614-1.372,1.372
			C72.808,18.268,72.808,18.75,72.808,19.232z"/>
		<polygon id="XMLID_94_" points="44.049,15.522 44.049,22.05 41.231,22.05 41.231,15.522 34.909,7.96 38.591,7.96 42.64,12.797 
			46.689,7.96 50.371,7.96 		"/>
		<g id="XMLID_91_">
			<path id="XMLID_93_" class="st0" d="M15.485,22.983c-1.437,0-2.612-1.175-2.612-2.612c0-3.708,0-7.415,0-11.123
				c0-1.437,1.175-2.612,2.612-2.612s2.612,1.175,2.612,2.612c0,3.104,0,6.207,0,9.311c0,3.539,2.612,4.424,2.612,4.424
				C18.968,22.983,17.227,22.983,15.485,22.983z"/>
			<circle id="XMLID_92_" class="st0" cx="15.485" cy="3.434" r="2.191"/>
		</g>
		<g id="XMLID_88_">
			<path id="XMLID_90_" class="st1" d="M9.029,22.983c-1.251,0-2.274-1.023-2.274-2.274c0-3.227,0-6.455,0-9.682
				c0-1.251,1.023-2.274,2.274-2.274c1.251,0,2.274,1.023,2.274,2.274c0,2.702,0,5.404,0,8.105c0,3.081,2.274,3.851,2.274,3.851
				C12.061,22.983,10.545,22.983,9.029,22.983z"/>
			<circle id="XMLID_89_" class="st1" cx="9.029" cy="5.965" r="1.907"/>
		</g>
		<g id="XMLID_85_">
			<path id="XMLID_87_" class="st2" d="M3.378,22.983c-1.021,0-1.856-0.836-1.856-1.856c0-2.635,0-5.27,0-7.905
				c0-1.021,0.835-1.857,1.856-1.857s1.856,0.836,1.856,1.857c0,2.206,0,4.412,0,6.618c0,2.515,1.857,3.144,1.857,3.144
				C5.854,22.983,4.616,22.983,3.378,22.983z"/>
			<circle id="XMLID_86_" class="st2" cx="3.378" cy="9.089" r="1.557"/>
		</g>
		<g id="XMLID_73_">
			<g id="XMLID_80_">
				<g id="XMLID_81_">
					<path id="XMLID_82_" d="M93.467,0.126c-2.101,0-3.768,1.695-3.77,3.837c-0.007,2.132,1.653,3.831,3.767,3.831
						c2.107,0,3.77-1.699,3.78-3.831C97.242,1.821,95.577,0.126,93.467,0.126z M93.464,7.171c-1.728,0-3.164-1.404-3.154-3.207
						c0.001-1.818,1.434-3.218,3.163-3.218c1.72,0,3.151,1.4,3.159,3.218C96.624,5.767,95.182,7.171,93.464,7.171z"/>
				</g>
			</g>
			<g id="XMLID_74_">
				<path id="XMLID_78_" d="M93.108,4.224c-0.009-0.305-0.019-0.674-0.016-1.042l-0.011,0C93,3.505,92.892,3.865,92.793,4.162
					L92.479,5.15l-0.448-0.003l-0.265-0.983c-0.081-0.298-0.166-0.659-0.224-0.991l-0.008,0c-0.017,0.342-0.031,0.734-0.051,1.049
					l-0.051,0.963l-0.53-0.003l0.176-2.535l0.764,0.004L92.086,3.5c0.077,0.294,0.154,0.61,0.209,0.908l0.011,0
					c0.073-0.293,0.162-0.627,0.246-0.909l0.276-0.841l0.749,0.004l0.124,2.537L93.14,5.195L93.108,4.224z"/>
				<path id="XMLID_75_" d="M93.96,2.698c0.185-0.029,0.459-0.05,0.764-0.048c0.376,0.002,0.639,0.06,0.819,0.204
					c0.15,0.121,0.232,0.299,0.23,0.532c-0.002,0.324-0.233,0.544-0.451,0.622l0,0.011c0.176,0.073,0.273,0.242,0.336,0.476
					c0.077,0.286,0.154,0.618,0.203,0.716l-0.587-0.003c-0.041-0.072-0.1-0.279-0.173-0.592c-0.066-0.316-0.174-0.404-0.408-0.409
					L94.52,4.206l-0.006,0.997L93.946,5.2L93.96,2.698z M94.522,3.792l0.226,0.001c0.286,0.002,0.456-0.14,0.457-0.362
					c0.001-0.233-0.156-0.351-0.419-0.356c-0.139-0.001-0.218,0.01-0.26,0.017L94.522,3.792z"/>
			</g>
		</g>
		<g id="XMLID_52_">
			<path id="XMLID_70_" d="M22.953,6.634h-1.327V0h4.423c1.474,0,2.211,0.663,2.211,1.99c0,1.327-0.737,1.99-2.211,1.99h-3.096
				V6.634z M25.828,2.654c0.737,0,1.106-0.221,1.106-0.663s-0.369-0.663-1.106-0.663h-2.875v1.327H25.828z"/>
			<path id="XMLID_67_" d="M31.56,3.98h-0.646v2.654h-1.327V0h4.423c1.474,0,2.211,0.663,2.211,1.99c0,1.327-0.737,1.99-2.211,1.99
				h-0.411l3.114,2.654h-2.039L31.56,3.98z M33.789,2.654c0.737,0,1.106-0.221,1.106-0.663s-0.369-0.663-1.106-0.663h-2.875v1.327
				H33.789z"/>
			<path id="XMLID_64_" d="M41.971,6.634L39.76,6.638V6.634c-1.474,0-2.211-0.737-2.211-2.211V2.211C37.548,0.737,38.285,0,39.76,0
				h2.211c1.474,0,2.211,0.737,2.211,2.211v2.211C44.182,5.894,43.445,6.631,41.971,6.634z M41.75,5.307
				c0.737,0,1.106-0.369,1.106-1.106V2.433c0-0.737-0.369-1.106-1.106-1.106h-1.99c-0.59,0-0.884,0.369-0.884,1.106v1.769
				c0,0.737,0.368,1.106,1.106,1.106H41.75z"/>
			<path id="XMLID_62_" d="M49.268,3.56v3.074h-1.327V3.56L44.965,0h1.734l1.906,2.278L50.511,0h1.734L49.268,3.56z"/>
			<path id="XMLID_60_" d="M54.354,5.307h5.307v1.327h-6.634V0h6.634v1.327h-5.307v1.327h5.307V3.98h-5.307V5.307z"/>
			<path id="XMLID_58_" d="M67.622,5.307v1.327H63.2c-1.474,0-2.211-0.737-2.211-2.211V2.211C60.988,0.737,61.725,0,63.2,0h4.423
				v1.327h-4.241c-0.711,0-1.066,0.354-1.066,1.061v1.853c0,0.711,0.357,1.066,1.07,1.066H67.622z"/>
			<path id="XMLID_56_" d="M71.603,1.327h-2.649L68.949,0h6.634v1.327h-2.654v5.307h-1.327V1.327z"/>
			<path id="XMLID_53_" d="M81.333,6.634l-2.211,0.004V6.634c-1.474,0-2.211-0.737-2.211-2.211V2.211C76.91,0.737,77.647,0,79.121,0
				h2.211c1.474,0,2.211,0.737,2.211,2.211v2.211C83.544,5.894,82.807,6.631,81.333,6.634z M81.111,5.307
				c0.737,0,1.106-0.369,1.106-1.106V2.433c0-0.737-0.369-1.106-1.106-1.106h-1.99c-0.59,0-0.884,0.369-0.884,1.106v1.769
				c0,0.737,0.368,1.106,1.106,1.106H81.111z"/>
		</g>
		<g id="XMLID_46_">
			<path id="XMLID_49_" d="M23.985,22.222L23.985,22.222c-1.513,0-2.739-1.226-2.739-2.739V8.082h9.13
				c3.043,0,4.565,1.414,4.565,4.242c0,2.828-1.522,4.242-4.565,4.242h-6.391V22.222z M29.919,13.738
				c1.522,0,2.283-0.471,2.283-1.414c0-0.943-0.761-1.414-2.283-1.414h-5.934v2.828H29.919z"/>
			<path id="XMLID_47_" d="M54.184,14.219v8.003h-2.739V8.082h2.803l5.414,11.001l5.414-11.001h2.803v14.14h-2.739v-8.013
				l-3.935,8.003v0.01h-3.086L54.184,14.219z"/>
		</g>
	</g>
	<g id="XMLID_16_">
		<path id="XMLID_44_" d="M6.468,57.777c8.624,0,17.247,0,25.871,0c0,2.156,0,4.312,0,6.468c-8.625,0-17.251,0-25.876,0
			C2.893,64.245,0,61.352,0,57.782c0-6.481,0-12.963,0-19.444c0-3.552,2.88-6.432,6.432-6.432c8.636,0,17.271,0,25.907,0
			c0,2.156,0,4.312,0,6.468c-7.88,0-15.759,0-23.639,0c-1.233,0-2.232,0.999-2.232,2.232c0,1.412,0,2.824,0,4.236
			c8.624,0,17.247,0,25.871,0c0,2.156,0,4.312,0,6.468c-7.937,0-15.874,0-23.811,0c-1.138,0-2.06,0.922-2.06,2.059
			C6.468,54.838,6.468,56.308,6.468,57.777z"/>
		<path id="XMLID_43_" d="M284.582,57.777c8.624,0,17.247,0,25.871,0c0,2.156,0,4.312,0,6.468c-8.625,0-17.251,0-25.876,0
			c-3.569,0-6.462-2.893-6.462-6.462c0-6.481,0-12.963,0-19.444c0-3.552,2.88-6.432,6.432-6.432c8.636,0,17.271,0,25.907,0
			c0,2.156,0,4.312,0,6.468c-7.88,0-15.759,0-23.639,0c-1.233,0-2.232,0.999-2.232,2.232c0,1.412,0,2.824,0,4.236
			c8.624,0,17.247,0,25.871,0c0,2.156,0,4.312,0,6.468c-7.937,0-15.874,0-23.811,0c-1.138,0-2.06,0.922-2.06,2.059
			C284.582,54.838,284.582,56.308,284.582,57.777z"/>
		<path id="XMLID_42_" d="M168.162,57.777c8.624,0,17.247,0,25.871,0c0,2.156,0,4.312,0,6.468c-8.625,0-17.251,0-25.876,0
			c-3.569,0-6.462-2.893-6.462-6.462c0-6.481,0-12.963,0-19.444c0-3.552,2.88-6.432,6.432-6.432c8.636,0,17.271,0,25.907,0
			c0,2.156,0,4.312,0,6.468c-7.88,0-15.759,0-23.639,0c-1.233,0-2.232,0.999-2.232,2.232c0,1.412,0,2.824,0,4.236
			c8.624,0,17.247,0,25.871,0c0,2.156,0,4.312,0,6.468c-7.937,0-15.874,0-23.811,0c-1.138,0-2.06,0.922-2.06,2.059
			C168.162,54.838,168.162,56.308,168.162,57.777z"/>
		<path id="XMLID_39_" d="M260.866,32.523c-7.186,0-14.498,0-21.498,0c0,10,0,21,0,32c7,0,14.312,0,21.498,0
			c7.186,0,10.502-3.871,10.502-11.058c0-3.593,0-7.186,0-10.779C271.368,35.499,268.053,32.523,260.866,32.523z M265.368,52.668
			c0,3.406-1.958,4.856-5.407,4.856c-4.729,0-9.593,0-14.593,0c0-6,0-13,0-19c5,0,9.878,0,14.614,0c3.435,0,5.386,1.547,5.386,4.939
			C265.368,46.531,265.368,49.599,265.368,52.668z"/>
		<polygon id="XMLID_38_" points="206.968,41.716 206.968,64.245 200.501,64.245 200.501,31.906 207.098,31.906 226.372,54.435 
			226.372,31.906 232.84,31.906 232.84,64.245 226.264,64.245 		"/>
		<path id="XMLID_35_" d="M142.442,51.523c0.668,0,1.337,0,2.005,0c7.186,0,10.779-3.032,10.779-9.5c0-6.468-3.593-9.5-10.779-9.5
			c-7.186,0-15.078,0-22.078,0c0,10,0,21,0,32c3,0,5,0,7,0c0-4,0-9,0-13c1,0,2.085,0,3.134,0c5.059,4,10.119,9,15.178,13
			c3.313,0,6.626,0,9.939,0C152.56,60.523,147.501,55.523,142.442,51.523z M129.368,44.523c0-2,0-4,0-6c4,0,9.329,0,14,0
			c3.593,0,5.39,0.844,5.39,3c0,2.156-1.797,3-5.39,3C138.697,44.523,133.368,44.523,129.368,44.523z"/>
		<path id="XMLID_32_" d="M105.64,32.523c-7.186,0-14.272,0-21.272,0c0,10,0,21,0,32c2,0,4,0,6,0c0-4,0-9,0-13
			c5,0,10.241,0,15.272,0c7.186,0,10.779-3.032,10.779-9.5C116.42,35.556,112.826,32.523,105.64,32.523z M104.562,44.523
			c-4.671,0-9.194,0-14.194,0c0-2,0-4,0-6c5,0,9.523,0,14.194,0c3.593,0,5.39,0.844,5.39,3
			C109.952,43.679,108.155,44.523,104.562,44.523z"/>
		<polygon id="XMLID_31_" points="45.274,45.941 45.274,64.245 38.807,64.245 38.807,31.906 45.425,31.906 58.21,57.066 
			70.994,31.906 77.613,31.906 77.613,64.245 71.145,64.245 71.145,45.92 61.853,64.223 61.853,64.245 54.566,64.245 		"/>
		<path id="XMLID_28_" d="M418.447,32.523h-7.028l-14.035,32h7.05l2.803-7h15.415l2.803,7h7.028L418.447,32.523z M410.039,51.523
			l4.894-11.275l4.894,11.275H410.039z"/>
		<polygon id="XMLID_27_" points="385.677,49.261 385.677,64.245 379.209,64.245 379.209,49.261 364.7,31.906 373.151,31.906 
			382.443,43.009 391.735,31.906 400.186,31.906 		"/>
		<path id="XMLID_26_" class="st1" d="M343.475,59.833c-0.491,0.688-0.985,1.375-1.48,2.06c-0.065,0.09-0.129,0.179-0.194,0.269
			c-0.033,0.045-0.065,0.09-0.098,0.135c-0.016,0.023-0.033,0.045-0.049,0.068c-0.008,0.011-0.027,0.054-0.027,0.028
			c0-0.056,0-0.113,0-0.169c0-0.113,0-0.225,0-0.338c0-0.451,0-0.901,0-1.352c0-1.678,0-3.356,0-5.034c0-3.356,0-6.712,0-10.068
			c0-6.712,0-13.424,0-20.135c0.62,0.049,1.235,0.121,1.849,0.226C343.475,36.96,343.475,48.397,343.475,59.833z"/>
		<path id="XMLID_25_" class="st0" d="M354.567,38.446c-0.007-1.089-0.197-2.107-0.542-3.136c-0.342-1.019-0.784-1.978-1.307-2.914
			c0,4.351,0,8.702,0,13.054c0.531-1.079,0.992-2.17,1.313-3.335c0.307-1.115,0.528-2.375,0.535-3.539
			C354.567,38.532,354.567,38.489,354.567,38.446z"/>
		<path id="XMLID_24_" class="st0" d="M350.87,29.706c0,6.364,0,12.728,0,19.093c-0.597,0.997-1.216,1.979-1.849,2.954
			c0-7.953,0-15.906,0-23.858C349.702,28.439,350.307,29.042,350.87,29.706z"/>
		<path id="XMLID_23_" class="st3" d="M337.922,62.42c0-6.51,0-13.021,0-19.531c0-3.255,0-6.51,0-9.765c0-1.628,0-3.255,0-4.883
			c0-0.777,0-1.555,0-2.332c0-0.194,0-0.389,0-0.583c0-0.024,0-0.049,0-0.073c0-0.012,0-0.024,0-0.036
			c0-0.012,0.012-0.002,0.018-0.002c0.007,0,0.013,0,0.02,0c0.054-0.001,0.108-0.001,0.162-0.002
			c0.109-0.001,0.219-0.001,0.328-0.001c0.443,0,0.885-0.003,1.328,0.004c0,12.402,0,24.804,0,37.206
			c-0.309,0.003-0.619,0.011-0.928,0.009C338.54,62.426,338.231,62.423,337.922,62.42z"/>
		<path id="XMLID_22_" class="st0" d="M326.83,48.799c0.597,0.997,1.216,1.979,1.849,2.954c0-7.953,0-15.906,0-23.858
			c-0.681,0.544-1.286,1.147-1.849,1.812C326.83,36.07,326.83,42.435,326.83,48.799z"/>
		<path id="XMLID_21_" class="st0" d="M324.981,45.45c0-4.351,0-8.702,0-13.054c-0.53,0.95-1.049,2.09-1.377,3.131
			c-0.351,1.114-0.509,2.207-0.464,3.376c0.042,1.097,0.271,2.319,0.572,3.369C324.031,43.38,324.475,44.421,324.981,45.45z"/>
		<polygon id="XMLID_20_" class="st0" points="336.073,64.362 336.073,70.112 341.627,70.112 341.627,64.362 340.321,64.362 
			340.321,67.189 337.383,67.189 337.383,64.362 		"/>
		<path id="XMLID_19_" class="st1" d="M336.073,25.298c-0.379,0.03-0.757,0.069-1.134,0.119c-0.178,0.023-0.355,0.049-0.532,0.078
			c-0.043,0.007-0.086,0.014-0.129,0.021c-0.011,0.002-0.021,0.004-0.032,0.005c-0.005,0.001-0.011,0.002-0.016,0.003
			c-0.009,0.001-0.005,0.009-0.005,0.014c0,0.025,0,0.051,0,0.076c0,0.101,0,0.203,0,0.304c0,0.811,0,1.622,0,2.433
			c0,1.622,0,3.244,0,4.866c0,3.185,0,6.37,0,9.555s0,6.37,0,9.555c0,1.343,0,2.685,0,4.028c0,0.671,0,1.343,0,2.014
			c0,0.336,0,0.671,0,1.007c0,0.084,0,0.168,0,0.252c0,0.042,0,0.084,0,0.126c0,0.021,0,0.042,0,0.063
			c0,0.028,0.018,0.042,0.032,0.061c0.022,0.031,0.044,0.062,0.066,0.093c0.364,0.51,0.73,1.019,1.097,1.528
			c0.208,0.288,0.416,0.576,0.624,0.864c0.007,0.009,0.013,0.018,0.02,0.027c0.003,0.004,0.01,0.019,0.01,0.01
			c0-0.006,0-0.011,0-0.017c0-0.011,0-0.023,0-0.034c0-0.023,0-0.045,0-0.068c0-0.045,0-0.091,0-0.136c0-0.182,0-0.364,0-0.545
			c0-0.364,0-0.727,0-1.091c0-0.727,0-1.454,0-2.181c0-1.454,0-2.908,0-4.362c0-3.185,0-6.37,0-9.555
			C336.073,38.038,336.073,31.668,336.073,25.298z"/>
		<path id="XMLID_18_" class="st1" d="M330.527,54.534c0-5.362,0-10.725,0-16.087c0-2.681,0-5.362,0-8.044c0-0.741,0-1.482,0-2.223
			c0-0.371,0-0.741,0-1.112c0-0.093,0-0.185,0-0.278c0-0.023,0-0.046,0-0.069c0-0.01-0.007-0.021,0.006-0.027
			c0.007-0.003,0.014-0.007,0.021-0.01c0.028-0.014,0.055-0.028,0.083-0.041c0.112-0.055,0.225-0.109,0.339-0.16
			c0.235-0.106,0.474-0.204,0.715-0.294c0.125-0.047,0.251-0.091,0.378-0.133c0.065-0.022,0.129-0.043,0.194-0.063
			c0.033-0.01,0.066-0.021,0.099-0.031c0.004-0.001,0.008-0.003,0.012-0.004c0.01-0.003,0.001,0.01,0.001,0.016
			c0,0.012,0,0.023,0,0.035c0,0.023,0,0.046,0,0.069c0,0.741,0,1.482,0,2.223c0,5.362,0,10.725,0,16.087c0,2.681,0,5.362,0,8.044
			c0,0.979,0,1.958,0,2.937c0,0.489,0,0.979,0,1.468c0,0.122,0,0.245,0,0.367c0,0.004,0,0.008,0,0.011
			c0,0.007-0.005-0.005-0.007-0.008c-0.004-0.005-0.007-0.01-0.011-0.015c-0.014-0.02-0.028-0.04-0.042-0.06
			c-0.028-0.04-0.056-0.08-0.084-0.12c-0.055-0.079-0.111-0.159-0.166-0.238c-0.108-0.156-0.217-0.312-0.325-0.468
			C331.335,55.717,330.929,55.127,330.527,54.534z"/>
		<path id="XMLID_17_" class="st1" d="M345.324,57.217c0.622-0.89,1.239-1.784,1.849-2.682c0-9.279,0-18.558,0-27.837
			c-0.596-0.304-1.209-0.545-1.849-0.741C345.324,36.377,345.324,46.797,345.324,57.217z"/>
	</g>
</g>
</svg>