<?xml version="1.0" encoding="utf-8"?>
<!-- Generator: Adobe Illustrator 19.0.0, SVG Export Plug-In . SVG Version: 6.00 Build 0)  -->
<svg version="1.2" baseProfile="tiny" id="Capa_1" xmlns="http://www.w3.org/2000/svg" xmlns:xlink="http://www.w3.org/1999/xlink"
	 x="0px" y="0px" viewBox="0 0 31.5 44.9" xml:space="preserve">
<path id="XMLID_42_" fill="#FFFFFF" d="M20.4,34.7c-0.5,0.7-1,1.4-1.5,2.1c-0.1,0.1-0.1,0.2-0.2,0.3c0,0-0.1,0.1-0.1,0.1
	c0,0,0,0,0,0.1c0,0,0,0.1,0,0c0-0.1,0-0.1,0-0.2c0-0.1,0-0.2,0-0.3c0-0.5,0-0.9,0-1.4c0-1.7,0-3.4,0-5c0-3.4,0-6.7,0-10.1
	c0-6.7,0-13.4,0-20.2c0.6,0,1.2,0.1,1.9,0.2C20.4,11.8,20.4,23.2,20.4,34.7z"/>
<path id="XMLID_41_" fill="#FFFFFF" d="M31.5,13.2c0-1.1-0.2-2.1-0.5-3.1c-0.3-1-0.8-2-1.3-2.9c0,4.4,0,8.7,0,13.1
	c0.5-1.1,1-2.2,1.3-3.3c0.3-1.1,0.5-2.4,0.5-3.5C31.5,13.3,31.5,13.3,31.5,13.2z"/>
<path id="XMLID_40_" fill="#FFFFFF" d="M27.8,4.5c0,6.4,0,12.7,0,19.1c-0.6,1-1.2,2-1.9,3c0-8,0-15.9,0-23.9
	C26.6,3.2,27.2,3.8,27.8,4.5z"/>
<path id="XMLID_39_" fill="#FFFFFF" d="M14.8,37.2c0-6.5,0-13,0-19.5c0-3.3,0-6.5,0-9.8c0-1.6,0-3.3,0-4.9c0-0.8,0-1.6,0-2.3
	c0-0.2,0-0.4,0-0.6c0,0,0,0,0-0.1c0,0,0,0,0,0s0,0,0,0c0,0,0,0,0,0c0.1,0,0.1,0,0.2,0c0.1,0,0.2,0,0.3,0c0.4,0,0.9,0,1.3,0
	c0,12.4,0,24.8,0,37.2c-0.3,0-0.6,0-0.9,0C15.4,37.3,15.1,37.2,14.8,37.2z"/>
<path id="XMLID_38_" fill="#FFFFFF" d="M3.7,23.6c0.6,1,1.2,2,1.9,3c0-8,0-15.9,0-23.9C4.9,3.2,4.3,3.8,3.7,4.5
	C3.7,10.9,3.7,17.2,3.7,23.6z"/>
<path id="XMLID_37_" fill="#FFFFFF" d="M1.9,20.3c0-4.4,0-8.7,0-13.1c-0.5,1-1,2.1-1.4,3.1C0.1,11.4,0,12.5,0,13.7
	c0,1.1,0.3,2.3,0.6,3.4C0.9,18.2,1.3,19.2,1.9,20.3z"/>
<polygon id="XMLID_36_" fill="#FFFFFF" points="13,39.2 13,44.9 18.5,44.9 18.5,39.2 17.2,39.2 17.2,42 14.3,42 14.3,39.2 "/>
<path id="XMLID_35_" fill="#FFFFFF" d="M13,0.1c-0.4,0-0.8,0.1-1.1,0.1c-0.2,0-0.4,0-0.5,0.1c0,0-0.1,0-0.1,0c0,0,0,0,0,0
	c0,0,0,0,0,0c0,0,0,0,0,0c0,0,0,0.1,0,0.1c0,0.1,0,0.2,0,0.3c0,0.8,0,1.6,0,2.4c0,1.6,0,3.2,0,4.9c0,3.2,0,6.4,0,9.6s0,6.4,0,9.6
	c0,1.3,0,2.7,0,4c0,0.7,0,1.3,0,2c0,0.3,0,0.7,0,1c0,0.1,0,0.2,0,0.3c0,0,0,0.1,0,0.1c0,0,0,0,0,0.1c0,0,0,0,0,0.1
	c0,0,0,0.1,0.1,0.1c0.4,0.5,0.7,1,1.1,1.5c0.2,0.3,0.4,0.6,0.6,0.9c0,0,0,0,0,0c0,0,0,0,0,0c0,0,0,0,0,0c0,0,0,0,0,0c0,0,0,0,0-0.1
	c0,0,0-0.1,0-0.1c0-0.2,0-0.4,0-0.5c0-0.4,0-0.7,0-1.1c0-0.7,0-1.5,0-2.2c0-1.5,0-2.9,0-4.4c0-3.2,0-6.4,0-9.6
	C13,12.8,13,6.5,13,0.1z"/>
<path id="XMLID_34_" fill="#FFFFFF" d="M7.4,29.4c0-5.4,0-10.7,0-16.1c0-2.7,0-5.4,0-8.1c0-0.7,0-1.5,0-2.2c0-0.4,0-0.7,0-1.1
	c0-0.1,0-0.2,0-0.3c0,0,0,0,0-0.1c0,0,0,0,0,0c0,0,0,0,0,0c0,0,0.1,0,0.1,0c0.1-0.1,0.2-0.1,0.3-0.2C8.1,1.2,8.3,1.1,8.6,1
	c0.1,0,0.3-0.1,0.4-0.1c0.1,0,0.1,0,0.2-0.1c0,0,0.1,0,0.1,0c0,0,0,0,0,0c0,0,0,0,0,0c0,0,0,0,0,0c0,0,0,0,0,0.1c0,0.7,0,1.5,0,2.2
	c0,5.4,0,10.7,0,16.1c0,2.7,0,5.4,0,8.1c0,1,0,2,0,2.9c0,0.5,0,1,0,1.5c0,0.1,0,0.2,0,0.4c0,0,0,0,0,0c0,0,0,0,0,0c0,0,0,0,0,0
	c0,0,0,0,0-0.1c0,0-0.1-0.1-0.1-0.1c-0.1-0.1-0.1-0.2-0.2-0.2c-0.1-0.2-0.2-0.3-0.3-0.5C8.2,30.5,7.8,29.9,7.4,29.4z"/>
<path id="XMLID_17_" fill="#FFFFFF" d="M22.2,32c0.6-0.9,1.2-1.8,1.9-2.7c0-9.3,0-18.6,0-27.9c-0.6-0.3-1.2-0.5-1.9-0.7
	C22.2,11.2,22.2,21.6,22.2,32z"/>
</svg>
