<!-- Generator: Adobe Illustrator 19.0.0, SVG Export Plug-In  -->
<svg version="1.1"
	 xmlns="http://www.w3.org/2000/svg" xmlns:xlink="http://www.w3.org/1999/xlink" xmlns:a="http://ns.adobe.com/AdobeSVGViewerExtensions/3.0/"
	 x="0px" y="0px" width="432.909px" height="70.181px" viewBox="0 0 432.909 70.181"
	 style="enable-background:new 0 0 432.909 70.181;" xml:space="preserve">
<style type="text/css">
	.st0{fill:#FFFFFF;}
	.st1{fill:#230850;}
	.st2{fill:#FF004F;}
	.st3{fill:#77776B;}
</style>
<defs>
</defs>
<g id="XMLID_15_">
	<g id="XMLID_61_">
		<path id="XMLID_120_" class="st0" d="M72.88,19.251c3.761,0,7.522,0,11.284,0c0,0.94,0,1.881,0,2.821c-3.731,0-7.462,0-11.193,0
			c-1.608,0-2.911-1.303-2.911-2.911c0-2.773,0-5.546,0-8.319c0-1.587,1.287-2.874,2.874-2.874c3.743,0,7.487,0,11.23,0
			c0,0.94,0,1.881,0,2.821c-3.259,0-6.517,0-9.776,0c-0.833,0-1.508,0.675-1.508,1.507c0,0.438,0,0.876,0,1.313
			c3.761,0,7.522,0,11.284,0c0,0.94,0,1.881,0,2.821c-3.303,0-6.607,0-9.91,0c-0.759,0-1.374,0.615-1.374,1.373
			C72.88,18.286,72.88,18.769,72.88,19.251z"/>
		<polygon id="XMLID_119_" class="st0" points="44.092,15.537 44.092,22.072 41.272,22.072 41.272,15.537 34.943,7.968 
			38.629,7.968 42.682,12.81 46.735,7.968 50.42,7.968 		"/>
		<g id="XMLID_116_">
			<path id="XMLID_118_" class="st1" d="M15.501,23.006c-1.438,0-2.615-1.177-2.615-2.615c0-3.711,0-7.422,0-11.134
				c0-1.438,1.177-2.615,2.615-2.615s2.615,1.177,2.615,2.615c0,3.107,0,6.213,0,9.32c0,3.543,2.615,4.428,2.615,4.428
				C18.987,23.006,17.244,23.006,15.501,23.006z"/>
			<circle id="XMLID_117_" class="st1" cx="15.501" cy="3.437" r="2.193"/>
		</g>
		<g id="XMLID_113_">
			<path id="XMLID_115_" class="st2" d="M9.038,23.006c-1.252,0-2.276-1.024-2.276-2.276c0-3.231,0-6.461,0-9.692
				c0-1.252,1.024-2.276,2.276-2.276c1.252,0,2.276,1.024,2.276,2.276c0,2.704,0,5.409,0,8.113c0,3.084,2.276,3.855,2.276,3.855
				C12.073,23.006,10.555,23.006,9.038,23.006z"/>
			<circle id="XMLID_114_" class="st2" cx="9.038" cy="5.971" r="1.909"/>
		</g>
		<g id="XMLID_110_">
			<path id="XMLID_112_" class="st3" d="M3.381,23.006c-1.022,0-1.858-0.836-1.858-1.858c0-2.638,0-5.275,0-7.913
				c0-1.022,0.836-1.859,1.858-1.859s1.858,0.836,1.858,1.859c0,2.208,0,4.416,0,6.624c0,2.518,1.859,3.147,1.859,3.147
				C5.859,23.006,4.62,23.006,3.381,23.006z"/>
			<circle id="XMLID_111_" class="st3" cx="3.381" cy="9.098" r="1.559"/>
		</g>
		<g id="XMLID_98_">
			<g id="XMLID_105_">
				<g id="XMLID_106_">
					<path id="XMLID_107_" class="st0" d="M93.559,0.126c-2.104,0-3.772,1.697-3.774,3.841c-0.007,2.135,1.654,3.835,3.771,3.835
						c2.109,0,3.774-1.7,3.783-3.835C97.338,1.823,95.671,0.126,93.559,0.126z M93.556,7.178c-1.73,0-3.167-1.405-3.157-3.21
						c0.001-1.819,1.435-3.221,3.166-3.221c1.722,0,3.155,1.402,3.162,3.221C96.719,5.772,95.276,7.178,93.556,7.178z"/>
				</g>
			</g>
			<g id="XMLID_99_">
				<path id="XMLID_103_" class="st0" d="M93.2,4.228c-0.01-0.305-0.019-0.674-0.017-1.043l-0.011,0
					c-0.081,0.323-0.189,0.684-0.288,0.981L92.57,5.155l-0.448-0.003l-0.265-0.984c-0.081-0.298-0.166-0.66-0.224-0.992l-0.008,0
					c-0.017,0.343-0.031,0.734-0.051,1.05L91.523,5.19l-0.531-0.003l0.177-2.537l0.764,0.004l0.244,0.849
					c0.077,0.294,0.155,0.611,0.209,0.909l0.011,0c0.073-0.293,0.162-0.628,0.246-0.91l0.276-0.842l0.749,0.004l0.125,2.539
					L93.232,5.2L93.2,4.228z"/>
				<path id="XMLID_100_" class="st0" d="M94.053,2.7c0.185-0.029,0.46-0.05,0.765-0.048c0.377,0.002,0.64,0.06,0.82,0.204
					c0.15,0.121,0.232,0.299,0.23,0.532c-0.002,0.324-0.233,0.545-0.452,0.623l0,0.011c0.177,0.073,0.274,0.243,0.336,0.476
					c0.077,0.287,0.155,0.619,0.203,0.717l-0.587-0.003c-0.041-0.072-0.1-0.279-0.174-0.592c-0.066-0.317-0.175-0.404-0.408-0.409
					L94.613,4.21l-0.006,0.998l-0.569-0.003L94.053,2.7z M94.615,3.796l0.226,0.001c0.286,0.002,0.457-0.14,0.458-0.363
					c0.001-0.234-0.156-0.351-0.42-0.356c-0.139-0.001-0.219,0.01-0.26,0.017L94.615,3.796z"/>
			</g>
		</g>
		<g id="XMLID_68_">
			<path id="XMLID_95_" class="st0" d="M22.976,6.641h-1.328V0h4.427c1.476,0,2.214,0.664,2.214,1.992
				c0,1.328-0.738,1.992-2.214,1.992h-3.099V6.641z M25.853,2.656c0.738,0,1.107-0.221,1.107-0.664s-0.369-0.664-1.107-0.664h-2.877
				v1.328H25.853z"/>
			<path id="XMLID_92_" class="st0" d="M31.591,3.984h-0.646v2.656h-1.328V0h4.427c1.476,0,2.214,0.664,2.214,1.992
				c0,1.328-0.738,1.992-2.214,1.992h-0.412l3.117,2.656h-2.041L31.591,3.984z M33.822,2.656c0.738,0,1.107-0.221,1.107-0.664
				s-0.369-0.664-1.107-0.664h-2.877v1.328H33.822z"/>
			<path id="XMLID_89_" class="st0" d="M42.012,6.641l-2.213,0.004V6.641c-1.476,0-2.214-0.738-2.214-2.214V2.214
				C37.585,0.738,38.323,0,39.799,0h2.213c1.476,0,2.214,0.738,2.214,2.214v2.213C44.226,5.9,43.488,6.638,42.012,6.641z
				 M41.791,5.313c0.738,0,1.107-0.369,1.107-1.107V2.435c0-0.738-0.369-1.107-1.107-1.107h-1.992c-0.59,0-0.885,0.369-0.885,1.107
				v1.771c0,0.738,0.369,1.107,1.107,1.107H41.791z"/>
			<path id="XMLID_87_" class="st0" d="M49.317,3.564v3.077h-1.328V3.564L45.009,0h1.735l1.908,2.28L50.561,0h1.735L49.317,3.564z"
				/>
			<path id="XMLID_77_" class="st0" d="M54.408,5.313h5.312v1.328H53.08V0h6.641v1.328h-5.312v1.328h5.312v1.328h-5.312V5.313z"/>
			<path id="XMLID_74_" class="st0" d="M67.689,5.313v1.328h-4.427c-1.476,0-2.214-0.738-2.214-2.214V2.214
				C61.048,0.738,61.786,0,63.262,0h4.427v1.328h-4.246c-0.711,0-1.067,0.354-1.067,1.062v1.855c0,0.711,0.357,1.067,1.071,1.067
				H67.689z"/>
			<path id="XMLID_72_" class="st0" d="M71.673,1.328h-2.652L69.017,0h6.641v1.328h-2.656v5.312h-1.328V1.328z"/>
			<path id="XMLID_69_" class="st0" d="M81.413,6.641l-2.213,0.004V6.641c-1.476,0-2.214-0.738-2.214-2.214V2.214
				C76.986,0.738,77.724,0,79.199,0h2.213c1.476,0,2.214,0.738,2.214,2.214v2.213C83.626,5.9,82.889,6.638,81.413,6.641z
				 M81.191,5.313c0.738,0,1.107-0.369,1.107-1.107V2.435c0-0.738-0.369-1.107-1.107-1.107h-1.992c-0.59,0-0.885,0.369-0.885,1.107
				v1.771c0,0.738,0.369,1.107,1.107,1.107H81.191z"/>
		</g>
		<g id="XMLID_62_">
			<path id="XMLID_65_" class="st0" d="M24.009,22.244L24.009,22.244c-1.514,0-2.742-1.227-2.742-2.742V8.09h9.139
				c3.046,0,4.569,1.415,4.569,4.246c0,2.831-1.523,4.246-4.569,4.246h-6.397V22.244z M29.949,13.751
				c1.523,0,2.285-0.472,2.285-1.415s-0.762-1.415-2.285-1.415h-5.94v2.831H29.949z"/>
			<path id="XMLID_63_" class="st0" d="M54.237,14.233v8.011h-2.742V8.09h2.805l5.419,11.012L65.139,8.09h2.806v14.154h-2.742
				v-8.021l-3.939,8.011v0.01h-3.089L54.237,14.233z"/>
		</g>
	</g>
	<g id="XMLID_16_">
		<path id="XMLID_60_" class="st0" d="M6.474,57.834c8.632,0,17.264,0,25.897,0c0,2.158,0,4.316,0,6.474c-8.634,0-17.268,0-25.902,0
			C2.896,64.308,0,61.412,0,57.839c0-6.488,0-12.976,0-19.463c0-3.556,2.882-6.438,6.438-6.438c8.644,0,17.288,0,25.932,0
			c0,2.158,0,4.316,0,6.474c-7.887,0-15.775,0-23.662,0c-1.234,0-2.235,1-2.235,2.234c0,1.413,0,2.827,0,4.24
			c8.632,0,17.264,0,25.897,0c0,2.158,0,4.316,0,6.474c-7.945,0-15.89,0-23.835,0c-1.139,0-2.062,0.923-2.062,2.061
			C6.474,54.892,6.474,56.363,6.474,57.834z"/>
		<path id="XMLID_59_" class="st0" d="M284.862,57.834c8.632,0,17.264,0,25.897,0c0,2.158,0,4.316,0,6.474
			c-8.634,0-17.268,0-25.902,0c-3.573,0-6.469-2.896-6.469-6.469c0-6.488,0-12.976,0-19.463c0-3.556,2.882-6.438,6.438-6.438
			c8.644,0,17.288,0,25.932,0c0,2.158,0,4.316,0,6.474c-7.887,0-15.775,0-23.662,0c-1.234,0-2.234,1-2.234,2.234
			c0,1.413,0,2.827,0,4.24c8.632,0,17.264,0,25.897,0c0,2.158,0,4.316,0,6.474c-7.945,0-15.89,0-23.835,0
			c-1.139,0-2.062,0.923-2.062,2.061C284.862,54.892,284.862,56.363,284.862,57.834z"/>
		<path id="XMLID_58_" class="st0" d="M168.328,57.834c8.632,0,17.264,0,25.897,0c0,2.158,0,4.316,0,6.474
			c-8.634,0-17.268,0-25.902,0c-3.573,0-6.469-2.896-6.469-6.469c0-6.488,0-12.976,0-19.463c0-3.556,2.882-6.438,6.438-6.438
			c8.644,0,17.288,0,25.932,0c0,2.158,0,4.316,0,6.474c-7.887,0-15.775,0-23.662,0c-1.234,0-2.234,1-2.234,2.234
			c0,1.413,0,2.827,0,4.24c8.632,0,17.264,0,25.897,0c0,2.158,0,4.316,0,6.474c-7.945,0-15.89,0-23.835,0
			c-1.139,0-2.062,0.923-2.062,2.061C168.328,54.892,168.328,56.363,168.328,57.834z"/>
		<path id="XMLID_55_" class="st0" d="M261.124,32.592c-7.194,0-15.53,0-21.53,0c0,11,0,21,0,32c6,0,14.336,0,21.53,0
			c7.193,0,10.47-3.881,10.47-11.075c0-3.597,0-7.193,0-10.79C271.594,35.534,268.317,32.592,261.124,32.592z M265.594,52.72
			c0,3.41-1.924,5.873-5.377,5.873c-4.733,0-10.623,0-14.623,0c0-7,0-13,0-20c4,0,9.904,0,14.645,0c3.438,0,5.355,1.517,5.355,4.912
			C265.594,46.576,265.594,49.648,265.594,52.72z"/>
		<polygon id="XMLID_54_" class="st0" points="207.172,41.757 207.172,64.308 200.698,64.308 200.698,31.938 207.302,31.938 
			226.595,54.489 226.595,31.938 233.069,31.938 233.069,64.308 226.487,64.308 		"/>
		<path id="XMLID_51_" class="st0" d="M142.582,51.592c0.669,0,1.338,0,2.007,0c7.193,0,10.79-3.026,10.79-9.5
			c0-6.474-3.597-9.5-10.79-9.5c-7.194,0-14.995,0-21.995,0c0,11,0,21,0,32c2,0,4,0,6,0c0-4,0-9,0-13c2,0,2.989,0,4.039,0
			c5.064,4,10.128,9,15.193,13c3.316,0,6.632,0,9.949,0C152.71,60.592,147.646,55.592,142.582,51.592z M128.594,45.592c0-2,0-4,0-7
			c5,0,10.24,0,14.916,0c3.596,0,5.395,1.342,5.395,3.5c0,2.158-1.799,3.5-5.395,3.5C138.834,45.592,133.594,45.592,128.594,45.592z
			"/>
		<path id="XMLID_48_" class="st0" d="M105.744,32.592c-7.194,0-15.15,0-22.15,0c0,11,0,21,0,32c2,0,4,0,7,0c0-4,0-9,0-13
			c4,0,10.115,0,15.15,0c7.193,0,10.79-3.026,10.79-9.5C116.534,35.618,112.938,32.592,105.744,32.592z M104.665,45.592
			c-4.676,0-10.071,0-14.071,0c0-2,0-4,0-7c4,0,9.395,0,14.071,0c3.596,0,5.395,1.342,5.395,3.5
			C110.06,44.25,108.261,45.592,104.665,45.592z"/>
		<polygon id="XMLID_47_" class="st0" points="45.319,45.986 45.319,64.308 38.845,64.308 38.845,31.938 45.47,31.938 
			58.267,57.122 71.064,31.938 77.689,31.938 77.689,64.308 71.215,64.308 71.215,45.965 61.914,64.287 61.914,64.308 54.62,64.308 
					"/>
		<path id="XMLID_44_" class="st0" d="M418.86,32.592h-7.035l-14.049,32h7.057l2.805-6h15.43l2.805,6h7.035L418.86,32.592z
			 M410.443,51.592l4.899-11.287l4.899,11.287H410.443z"/>
		<polygon id="XMLID_43_" class="st0" points="386.057,49.31 386.057,64.308 379.583,64.308 379.583,49.31 365.059,31.938 
			373.519,31.938 382.82,43.051 392.121,31.938 400.581,31.938 		"/>
		<path id="XMLID_42_" class="st0" d="M343.814,59.892c-0.492,0.689-0.986,1.376-1.481,2.062c-0.065,0.09-0.13,0.179-0.195,0.269
			c-0.033,0.045-0.065,0.09-0.098,0.135c-0.016,0.023-0.033,0.045-0.049,0.068c-0.008,0.011-0.027,0.054-0.027,0.028
			c0-0.056,0-0.113,0-0.169c0-0.113,0-0.226,0-0.338c0-0.451,0-0.902,0-1.353c0-1.68,0-3.359,0-5.039c0-3.359,0-6.718,0-10.078
			c0-6.718,0-13.437,0-20.155c0.621,0.049,1.237,0.122,1.85,0.227C343.814,36.997,343.814,48.445,343.814,59.892z"/>
		<path id="XMLID_41_" class="st0" d="M354.917,38.484c-0.007-1.09-0.197-2.109-0.543-3.139c-0.342-1.02-0.785-1.979-1.308-2.917
			c0,4.355,0,8.711,0,13.066c0.532-1.08,0.993-2.173,1.315-3.339c0.307-1.116,0.528-2.378,0.536-3.543
			C354.917,38.57,354.917,38.527,354.917,38.484z"/>
		<path id="XMLID_40_" class="st0" d="M351.216,29.736c0,6.37,0,12.741,0,19.111c-0.598,0.998-1.218,1.981-1.85,2.957
			c0-7.961,0-15.921,0-23.882C350.047,28.467,350.653,29.071,351.216,29.736z"/>
		<path id="XMLID_39_" class="st0" d="M338.255,62.482c0-6.517,0-13.034,0-19.55c0-3.258,0-6.517,0-9.775c0-1.629,0-3.258,0-4.888
			c0-0.778,0-1.556,0-2.335c0-0.195,0-0.389,0-0.584c0-0.024,0-0.049,0-0.073c0-0.012,0-0.024,0-0.036
			c0-0.012,0.012-0.002,0.018-0.002c0.007,0,0.013,0,0.02,0c0.054-0.001,0.108-0.001,0.162-0.002
			c0.11-0.001,0.219-0.001,0.329-0.001c0.443,0,0.886-0.003,1.329,0.004c0,12.414,0,24.828,0,37.242
			c-0.31,0.003-0.619,0.011-0.929,0.009C338.874,62.487,338.565,62.484,338.255,62.482z"/>
		<path id="XMLID_38_" class="st0" d="M327.152,48.847c0.598,0.998,1.218,1.981,1.85,2.957c0-7.961,0-15.921,0-23.882
			c-0.681,0.545-1.288,1.149-1.85,1.814C327.152,36.106,327.152,42.477,327.152,48.847z"/>
		<path id="XMLID_37_" class="st0" d="M325.302,45.495c0-4.355,0-8.711,0-13.066c-0.53,0.951-1.05,2.092-1.378,3.134
			c-0.351,1.115-0.509,2.209-0.465,3.38c0.042,1.098,0.271,2.322,0.573,3.373C324.35,43.423,324.795,44.465,325.302,45.495z"/>
		<polygon id="XMLID_36_" class="st0" points="336.404,64.425 336.404,70.181 341.963,70.181 341.963,64.425 340.656,64.425 
			340.656,67.256 337.715,67.256 337.715,64.425 		"/>
		<path id="XMLID_35_" class="st0" d="M336.404,25.323c-0.38,0.03-0.758,0.069-1.136,0.119c-0.178,0.023-0.355,0.049-0.532,0.078
			c-0.043,0.007-0.086,0.014-0.13,0.021c-0.011,0.002-0.021,0.004-0.032,0.005c-0.005,0.001-0.011,0.002-0.016,0.003
			c-0.009,0.001-0.005,0.009-0.005,0.014c0,0.025,0,0.051,0,0.076c0,0.101,0,0.203,0,0.304c0,0.812,0,1.624,0,2.435
			c0,1.624,0,3.247,0,4.871c0,3.188,0,6.377,0,9.565c0,3.188,0,6.377,0,9.565c0,1.344,0,2.688,0,4.032c0,0.672,0,1.344,0,2.016
			c0,0.336,0,0.672,0,1.008c0,0.084,0,0.168,0,0.252c0,0.042,0,0.084,0,0.126c0,0.021,0,0.042,0,0.063
			c0,0.028,0.018,0.042,0.032,0.061c0.022,0.031,0.044,0.062,0.066,0.093c0.365,0.511,0.731,1.02,1.098,1.529
			c0.208,0.288,0.416,0.577,0.625,0.865c0.007,0.009,0.013,0.018,0.02,0.027c0.003,0.004,0.01,0.019,0.01,0.01
			c0-0.006,0-0.011,0-0.017c0-0.011,0-0.023,0-0.034c0-0.023,0-0.045,0-0.068c0-0.045,0-0.091,0-0.136c0-0.182,0-0.364,0-0.546
			c0-0.364,0-0.728,0-1.092c0-0.728,0-1.456,0-2.183c0-1.456,0-2.911,0-4.367c0-3.188,0-6.377,0-9.565
			C336.404,38.076,336.404,31.699,336.404,25.323z"/>
		<path id="XMLID_34_" class="st0" d="M330.853,54.588c0-5.368,0-10.735,0-16.103c0-2.684,0-5.368,0-8.052c0-0.742,0-1.484,0-2.225
			c0-0.371,0-0.742,0-1.113c0-0.093,0-0.185,0-0.278c0-0.023,0-0.046,0-0.07c0-0.01-0.007-0.021,0.006-0.027
			c0.007-0.003,0.014-0.007,0.021-0.01c0.028-0.014,0.055-0.028,0.083-0.041c0.112-0.055,0.225-0.109,0.339-0.161
			c0.235-0.106,0.474-0.204,0.716-0.294c0.125-0.047,0.252-0.091,0.378-0.134c0.065-0.022,0.13-0.043,0.195-0.063
			c0.033-0.01,0.066-0.021,0.099-0.031c0.004-0.001,0.008-0.003,0.012-0.004c0.01-0.003,0.001,0.01,0.001,0.016
			c0,0.012,0,0.023,0,0.035c0,0.023,0,0.046,0,0.07c0,0.742,0,1.484,0,2.225c0,5.368,0,10.735,0,16.103c0,2.684,0,5.368,0,8.052
			c0,0.98,0,1.96,0,2.94c0,0.49,0,0.98,0,1.47c0,0.122,0,0.245,0,0.367c0,0.004,0,0.008,0,0.011c0,0.007-0.005-0.005-0.007-0.008
			c-0.004-0.005-0.007-0.01-0.011-0.015c-0.014-0.02-0.028-0.04-0.042-0.06c-0.028-0.04-0.056-0.08-0.084-0.12
			c-0.055-0.079-0.111-0.159-0.166-0.238c-0.109-0.156-0.217-0.312-0.325-0.468C331.661,55.772,331.256,55.181,330.853,54.588z"/>
		<path id="XMLID_17_" class="st0" d="M345.664,57.273c0.623-0.891,1.24-1.785,1.85-2.685c0-9.288,0-18.576,0-27.864
			c-0.597-0.304-1.211-0.546-1.85-0.742C345.664,36.413,345.664,46.843,345.664,57.273z"/>
	</g>
</g>
</svg>