<?xml version="1.0" standalone="no"?>
<!DOCTYPE svg PUBLIC "-//W3C//DTD SVG 20010904//EN"
 "http://www.w3.org/TR/2001/REC-SVG-20010904/DTD/svg10.dtd">
<svg version="1.0" xmlns="http://www.w3.org/2000/svg"
 width="512.000000pt" height="512.000000pt" viewBox="0 0 512.000000 512.000000"
 preserveAspectRatio="xMidYMid meet">
<metadata>
Created by potrace 1.11, written by Peter Selinger 2001-2013
</metadata>
<g transform="translate(0.000000,512.000000) scale(0.100000,-0.100000)"
fill="#000000" stroke="none">
<path d="M2509 4855 c0 -14 0 -3613 0 -3648 l1 -28 93 3 92 3 0 1833 c0 1009
-2 1837 -5 1841 -8 11 -180 8 -181 -4z"/>
<path d="M2225 4846 l-80 -11 -1 -1699 -1 -1700 84 -118 c47 -65 88 -120 93
-123 4 -3 8 818 8 1824 0 1389 -2 1830 -11 1833 -7 2 -48 -1 -92 -6z"/>
<path d="M2879 4856 c-5 -3 -3 -3666 1 -3666 3 0 44 55 93 123 l87 121 -2
1700 -3 1700 -40 7 c-39 7 -134 17 -136 15z"/>
<path d="M1871 4760 c-41 -16 -79 -34 -84 -39 -7 -7 -10 -485 -10 -1385 l0
-1375 64 -93 c35 -51 74 -110 88 -130 13 -21 27 -36 29 -33 11 10 7 3085 -3
3085 -5 -1 -43 -14 -84 -30z"/>
<path d="M3240 3243 c0 -1537 1 -1548 20 -1523 11 14 53 75 94 136 l75 110 0
1372 0 1372 -24 16 c-22 14 -90 42 -142 58 l-23 7 0 -1548z"/>
<path d="M1500 4513 l-90 -88 0 -949 0 -949 76 -121 c42 -67 84 -133 94 -146
17 -22 17 24 17 1158 0 650 -1 1182 -3 1182 -3 0 -45 -39 -94 -87z"/>
<path d="M3609 4583 c-1 -9 0 -2312 0 -2332 1 -16 24 17 115 165 l68 112 -1
908 c0 500 0 927 0 950 -1 37 -8 47 -83 122 -77 77 -97 92 -99 75z"/>
<path d="M1172 4043 c-93 -199 -125 -326 -124 -498 1 -66 3 -131 7 -145 3 -14
8 -43 10 -65 3 -22 8 -48 11 -57 3 -9 7 -27 9 -39 11 -58 69 -222 104 -294
l39 -80 1 643 c1 353 -1 642 -2 642 -2 0 -27 -48 -55 -107z"/>
<path d="M3971 3513 c0 -354 3 -643 5 -643 7 0 61 121 94 210 85 231 109 492
61 688 -30 122 -102 301 -150 372 -7 10 -10 -188 -10 -627z"/>
<path d="M2325 708 l0 -283 276 -3 276 -2 0 285 0 285 -66 0 -67 0 1 -137 0
-138 -142 -1 c-139 -1 -143 0 -144 20 -1 12 -1 74 -1 139 l0 117 -66 0 -67 0
0 -282z"/>
</g>
</svg>
